<?xml version="1.0" encoding="UTF-8"?>
<!DOCTYPE svg PUBLIC "-//W3C//DTD SVG 1.1//EN" "http://www.w3.org/Graphics/SVG/1.1/DTD/svg11.dtd">
<!-- Creator: CorelDRAW -->
<svg xmlns="http://www.w3.org/2000/svg" xml:space="preserve" width="16.8994mm" height="19.1175mm" version="1.1" style="shape-rendering:geometricPrecision; text-rendering:geometricPrecision; image-rendering:optimizeQuality; fill-rule:evenodd; clip-rule:evenodd"
viewBox="0 0 181.51 205.34"
 xmlns:xlink="http://www.w3.org/1999/xlink"
 xmlns:xodm="http://www.corel.com/coreldraw/odm/2003">
 <defs>
  <style type="text/css">
   <![CDATA[
    .fil8 {fill:#030403}
    .fil9 {fill:#15140F}
    .fil4 {fill:#846927}
    .fil5 {fill:#90784D}
    .fil7 {fill:#9B8362}
    .fil3 {fill:#BDA88A}
    .fil11 {fill:#EAEEEC}
    .fil2 {fill:#F9EEDC}
    .fil1 {fill:#FEEC42}
    .fil6 {fill:#FEF463}
    .fil0 {fill:#FEFD83}
    .fil10 {fill:#FFFFFD}
   ]]>
  </style>
 </defs>
 <g id="Capa_x0020_1">
  <metadata id="CorelCorpID_0Corel-Layer"/>
  <g id="_2297817632656">
   <path class="fil0" d="M100.68 0.85l-4.18 0.1c-1.55,0 -3.82,0.14 -5.28,-0.01 -1.9,-0.19 -7.4,-0.2 -9.6,-0.2 -1.49,0 -4.05,-0.09 -5.37,0.14 -0.34,0.06 -0.49,0.14 -0.85,0.16 -1.89,0.09 -2.07,0.41 -2.57,0.5 -0.24,0.04 -0.83,0.02 -1.1,0.02 -0.55,0.04 -0.27,0.1 -0.65,0.28 -0.75,0.36 -2.98,-0.04 -4.29,0.5l-0.7 0.22c-0.93,0.28 -1.71,0.66 -2.22,0.73 -0.43,0.06 -0.17,-0.02 -0.51,0.12l-1.76 0.59c-0.32,0.13 -0.42,0.33 -0.76,0.46l-1.67 0.79c-1.68,1 -2.36,1.58 -4.15,2.35l-4.99 2.75c-0.75,0.3 -1.69,0.75 -2.35,1.24l-2.62 2.17 -2.91 3.01c-0.78,0.9 -2.55,1.95 -3.14,2.77l-2.28 2.5c-0.1,0.1 -0.04,0.04 -0.15,0.15 -0.12,0.12 -0.04,0.05 -0.15,0.15l-2.57 2.84c-0.16,0.25 -0.3,0.4 -0.46,0.66l-2.16 3.24c-0.52,0.97 -1.22,2 -1.93,2.87 -0.13,0.16 -0.14,0.13 -0.29,0.32l-0.57 0.56c-0.25,0.21 -0.35,0.43 -0.56,0.66 -0.99,1.11 -0.96,0.63 -0.75,1.29 -0.46,0.04 -0.4,0.17 -0.92,0.61 -0.48,0.4 -1.11,1.76 -1.69,2.39 -0.02,0.02 -0.08,0.08 -0.1,0.1 -0.3,0.34 -0.46,0.88 -0.81,1.33l-0.4 0.51c-0.47,0.73 -0.8,1.51 -1.39,2.18l-0.7 1.03c-0.63,0.77 -1.05,1.66 -1.76,2.53l-0.91 1.53c-0.28,0.63 -0.27,1.3 -0.51,1.95 -0.08,0.23 -0.15,0.25 -0.22,0.58 -0.11,0.55 -0.07,0.83 -0.26,1.39l-1.51 3.69c-0.13,0.22 -0.04,0.1 -0.13,0.29 -0.18,0.39 -0.05,0.16 -0.35,0.46l-0.52 0.9c-0.01,0.02 -0.03,0.05 -0.04,0.06 -0.01,0.02 -0.03,0.04 -0.04,0.06l-1.26 1.9c-0.01,0.02 -0.03,0.04 -0.05,0.05l-0.14 0.16c-1.02,1.32 -2.34,4.8 -2.92,6.36 -0.14,0.37 -0.27,0.75 -0.42,1.2l-1.53 4.08c-0.01,0.03 -0.02,0.05 -0.03,0.08l-0.34 0.77c-0.02,0.03 -0.06,0.1 -0.08,0.12 -0.39,0.67 -0.95,2.4 -1.07,3.12l-0.3 0.91c-0.45,0.89 -0.44,2.02 -0.74,2.94 -0.07,0.21 -0.16,0.36 -0.2,0.51 -0.09,0.27 -0.07,0.42 -0.16,0.66 -0.44,1.17 -0.73,2.67 -1,3.89 -0.12,0.54 -0.32,0.82 -0.39,1.23 -0.07,0.38 -0.02,0.37 -0.13,0.69 -0.37,1.01 -0.55,2.19 -0.85,3.22 -0.24,0.82 -0.57,1.66 -0.58,2.59l-0.42 4.47 -0.65 2.62c-0.11,0.53 -0.34,0.76 -0.43,1.2 -0.25,1.23 -0.53,0.48 -0.66,2.52 -0.03,0.52 -0.23,0.84 -0.28,1.33 -0.05,0.5 0.02,1.11 -0.01,1.63 -0.04,0.54 -0.17,0.75 -0.18,1.43 -0,0.54 -0,1.09 -0,1.63 0,1.3 -0.17,6.63 0.05,7.49 0.15,0.6 0.13,0.14 0.32,0.68l0.53 1.51c0.09,0.21 0.03,0.08 0.1,0.31l0.07 0.23c0.38,1.11 -0.08,4.42 -0.44,5.64 -0.6,2.03 -0.48,4.25 -0.36,6.37 0.04,0.69 0.16,0.51 0.21,1.02l0.1 3.57c0,0.53 -0.15,0.52 -0.06,0.98 0.18,0.95 0.13,1.09 0.16,2.09l0.29 3.19c0.14,0.47 0.06,0.97 0.28,1.45l0.15 0.25c0.44,0.81 0.53,1.92 0.75,2.82 0.08,0.31 0.2,0.6 0.28,0.95 0.16,0.72 0.48,0.94 0.66,1.67 0.27,1.06 0.36,0.99 0.35,2.4 -0,1.73 0.41,1.86 0.6,2.87l0.63 1.92c0.29,0.66 -0.06,0.66 0.67,1.68 0.2,0.28 0.13,0.89 0.3,1.33l0.49 0.94c0.03,0.04 0.17,0.33 0.17,0.33l0.62 1.33c0.38,0.46 0.5,1.1 0.79,1.65 0.26,0.49 0.29,0.98 0.53,1.42l2.21 4.51c0.15,0.44 0.21,0.34 0.34,0.58l2.19 3.62c0.13,0.24 0.2,0.4 0.34,0.59l0.65 0.77c0.76,0.95 1.37,2.8 1.41,4.01 0.28,0.18 0.17,-0 0.38,0.21 0.16,0.16 0.19,0.34 0.41,0.51 0.36,0.27 -0.03,0 0.42,0.49l0.69 0.53c0.39,0.41 0.17,0.3 0.91,0.31 0.05,0.47 0.37,0.58 0.66,0.86l0.1 0.1c0.33,0.34 0.36,0.33 0.88,0.34 0.06,0.27 0.11,0.33 0.23,0.58 0.4,0.77 0.1,0.67 0.86,1.79 0.27,0.39 0.35,0.7 0.71,1.03 0.4,0.37 1.02,0.88 1.3,1.34l0.18 0.33c0.44,0.57 1.06,1.11 1.66,1.5l1.06 0.67c0.02,0.01 0.04,0.03 0.06,0.05 0.44,0.34 0.83,0.88 1.27,1.17l1 0.73c0.29,0.22 0.14,0.18 0.38,0.44l2.21 2.27c0.4,0.44 0.92,0.92 1.2,1.45l0.72 1.11c0.75,1.14 0.64,1.01 1.77,1.7l0.51 0.4c0.43,0.21 0.92,0.22 1.37,0.36 0.5,0.15 1,0.21 1.53,0.32 0.7,0.14 3.16,0.27 3.5,0.46 0.66,0.36 1.49,-0.08 2.84,0.53 0.55,0.25 1.33,0.18 1.88,0.47l0.6 0.32c0.7,0.29 1.2,0.61 1.86,0.79 0.27,0.07 0.39,0.28 0.57,0.34 0.53,0.18 1.18,0.06 1.76,0.38 1.09,0.6 0.11,-0.14 0.85,0.57 0.41,0.4 1.56,0.52 2.14,0.53 0.67,0.01 0.83,0.1 2.14,0.09 0.71,-0 3.33,-0.12 3.71,0.26l0.16 0.24c1.92,0.01 2.08,0.33 4.05,0.76 0.95,0.21 0.56,-0.07 1.43,0.38l0.52 0.11c0.78,0.03 4.25,-0.22 4.92,0.16l2.63 0.46c2.67,-0 5.23,-0.09 7.85,-0.33 0.49,-0.04 0.39,-0.15 0.92,-0.18 1.63,-0.08 3.6,-0.08 5.17,-0.39 0.37,-0.08 0.39,-0.13 0.95,-0.18l12.24 -2.01c1.13,-0.07 2.19,-0.38 3.09,-1l0.24 -0.16c0.74,-0.38 2.04,-0.07 2.88,-0.38 0.05,-0.02 0.09,-0.04 0.22,-0.08l3.37 -0.72c0.34,-0.15 0.37,-0.17 0.75,-0.26 0.53,-0.13 0.34,-0.04 0.69,-0.36 0.02,-0.02 0.08,-0.08 0.1,-0.1 0.02,-0.02 0.04,-0.04 0.05,-0.05 0.02,-0.02 0.08,-0.08 0.1,-0.1 0.28,-0.26 0.51,-0.22 0.84,-0.38l0.48 -0.33c0.85,-0.52 1.25,-0.37 2.05,-0.6 0.47,-0.13 0.13,-0.16 0.73,-0.27 1.32,-0.24 1.17,-0.66 2.47,-0.72 0.3,-0.6 -0.08,-0.23 0.39,-0.42 0.39,-0.16 0.77,-0.49 1.15,-0.58 0.86,-0.2 0.54,-0.07 1.39,-0.56l0.98 -0.65c0.33,-0.13 0.33,-0.01 0.7,-0.22 0.27,-0.15 0.24,-0.2 0.48,-0.33 0.73,-0.4 1.36,-0.92 1.99,-1.47l0.42 -0.4c0.02,-0.01 0.04,-0.03 0.06,-0.05 0.99,-0.78 1.83,-1.73 2.84,-2.46 0.09,-0.07 0.17,-0.1 0.25,-0.16 0.37,-0.27 0.27,-0.38 0.68,-0.64l2.22 -1.76c0.02,-0.02 0.08,-0.09 0.1,-0.11 0.48,-0.57 1.07,-0.81 1.54,-1.32 0.33,-0.36 0.78,-0.61 1.16,-0.88l0.94 -0.69c0.02,-0.01 0.04,-0.03 0.06,-0.05l0.33 -0.29c0.42,-0.38 0.14,-0.09 0.6,-0.32 0.45,-0.23 0.11,-0.14 0.45,-0.37 0.25,-0.17 0.3,-0.09 0.58,-0.34 0.62,-0.54 0.15,-0.41 1.04,-0.79 0.79,-0.34 0.38,-0.5 0.87,-0.87l0.95 -0.78c0.34,-0.23 0.64,-0.52 1.04,-0.7 0.62,-0.28 0.95,-0.78 1.54,-1.11 0.29,-0.17 0.31,-0.2 0.54,-0.38l1.19 -1.15c0.01,-0.02 0.03,-0.04 0.04,-0.06l0.31 -0.51c0.37,-0.8 0.92,-1.16 1.47,-1.78l0.66 -0.66c0.42,-0.43 1.08,-0.72 1.53,-1.12 0.13,-0.11 0.34,-0.37 0.47,-0.45 0.24,-0.15 0.37,-0.11 0.63,-0.3 0.35,-0.25 1.68,-1.97 2.03,-2.36l0.85 -0.89c0.32,-0.52 0.04,-0.41 0.65,-1.08 0.11,-0.12 0.08,-0.09 0.18,-0.24l0.67 -0.86c0.01,-0.02 0.03,-0.04 0.04,-0.06 0.01,-0.02 0.03,-0.04 0.04,-0.06 0.01,-0.02 0.03,-0.04 0.04,-0.06l1.02 -1.02c0.02,-0.02 0.04,-0.04 0.05,-0.05l0.93 -0.9c1.09,-1.08 0.34,-0.09 1.67,-1.8l1.48 -2.08c0.64,-0.41 0.15,-0.18 0.53,-0.71l0.42 -0.39c0.32,-0.29 0.47,-0.41 0.66,-0.77 0.31,-0.6 0.73,-1.06 0.99,-1.66 0.13,-0.3 0.21,-0.62 0.44,-0.88 0.32,-0.38 0.76,-0.69 1.03,-1.11l1.37 -2.4c0.02,-0.03 0.06,-0.11 0.07,-0.13 0.29,-0.53 0.59,-0.86 0.81,-1.43 0.23,-0.6 0.48,-1.18 0.85,-1.7l1.01 -1.34c0.01,-0.02 0.02,-0.05 0.03,-0.07 0.12,-0.18 0.01,-0.04 0.14,-0.16 0.69,-0.61 0.62,-0.76 1.07,-1.49 0.16,-0.26 0.28,-0.34 0.37,-0.54 0.17,-0.37 0.29,-0.84 0.54,-1.2 0.59,-0.88 0.15,-0.59 0.57,-1.26 0.13,-0.2 0.18,-0.35 0.28,-0.54l1.33 -2.14c0.28,-0.4 0.55,-0.6 0.76,-1.08 0.25,-0.59 -0.18,-0.14 0.46,-0.45 0.02,-1.23 0.31,-0.86 0.59,-1.66 0.19,-0.55 0.2,-1.09 0.42,-1.61 0.01,-0.02 0.02,-0.05 0.03,-0.07 0.3,-0.64 0.46,-1.04 0.57,-1.87l1.01 -3.59c0.13,-0.7 -0.06,-0.3 0.26,-0.86 0.28,-0.48 0.07,-0.49 0.25,-0.98 0.15,-0.42 0.44,-0.65 0.56,-1.08 0.19,-0.68 0.56,-1.34 0.74,-2.22 0.26,-1.31 0.66,-3.44 1.05,-4.66l0.42 -1.81c0.1,-1.08 0.13,-2.17 0.32,-3.16 0.13,-0.67 0.12,-1.38 0.27,-2.08l0.65 -4.04c0,-0.49 0.03,-0.7 0.08,-1.05 0.12,-0.84 -0.09,-0.99 0.18,-1.85 0.64,-2 0.37,-5.33 0.37,-7.7 0,-5.24 -0.37,-10.32 -0.46,-15.5 -0.02,-0.99 -0.1,-0.8 -0.46,-1.44 -0.18,-0.31 -0.14,-0.4 -0.35,-0.67 -0.76,-0.98 -0.94,-2.47 -1.32,-3.67 -0.66,-2.09 -0.73,-3.97 -1.1,-5.99 -0.04,-0.23 -0.19,-0.48 -0.27,-0.72 -0.3,-0.85 -0.21,-1.47 -0.66,-2.5 -0.18,-0.41 -0.2,-1.04 -0.36,-1.39 -0.2,-0.45 -0.52,-0.9 -0.68,-1.37 -0.11,-0.34 -0.13,-0.47 -0.25,-0.76 -0.08,-0.19 -0.15,-0.41 -0.26,-0.66 -0.23,-0.52 -0.16,-0.02 -0.33,-0.7l-0.88 -2.58c-0.23,-0.58 -0.41,-2.1 -0.65,-2.83 -0.26,-0.8 -0.35,-1.78 -0.47,-2.59l-0.24 -1.7c-0.03,-0.72 -0.31,-0.95 -0.4,-1.63 -0.08,-0.57 -0.29,-0.94 -0.46,-1.46l-0.87 -2.16c-0.24,-0.32 -0.23,-0.07 -0.5,-0.53 -0.24,-0.43 -0.51,-0.86 -0.66,-1.36 -0.49,-0.02 -1.14,-0.21 -1.5,-0.54 -0.7,-0.66 -1.2,-2.35 -0.97,-3.08 0.3,-0.98 0.34,-0.05 0.34,-1.67 0,-0.65 -0.11,-1.5 -0.18,-2.05 -0.13,-1.02 -0.2,-0.64 -0.53,-1.37 -0.35,-0.77 -1.23,-2.49 -2.37,-3.51 -1.24,-1.12 -0.74,-1.35 -1.5,-1.85l-0.28 -0.28c-0.43,-0.65 -0.5,-0.57 -0.87,-1.37l-0.69 -1.03c-0.21,-0.36 -0.3,-0.3 -0.54,-0.77l-0.64 -1.4c-0.52,-0.9 -1.16,-1.84 -1.85,-2.63 -0.11,-0.12 -0.12,-0.16 -0.24,-0.27 -0.02,-0.02 -0.04,-0.04 -0.05,-0.05l-0.79 -0.85c-0.11,-0.1 -0.17,-0.12 -0.29,-0.22 -0.32,-0.25 -0.05,-0.01 -0.31,-0.3 -0.01,-0.02 -0.03,-0.04 -0.05,-0.06l-1.98 -2.4c-0.39,-0.4 -0.61,-0.9 -1,-1.34l-1.11 -1.13c-0.21,-0.21 -0.3,-0.35 -0.56,-0.56 -1.91,-1.54 -3.5,-3.71 -5.3,-5.31l-3.42 -2.8c-0.36,-0.31 -0.31,-0.2 -0.7,-0.43 -0.54,-0.32 -0.39,-0.47 -0.94,-0.69 -0.7,-0.28 -0.28,-0.29 -1.31,-0.44 -0.7,-0.1 -1.37,-0.1 -1.92,-0.31 -0.44,-0.17 -1.17,-0.13 -1.62,-0.31 -0.42,-0.17 -0.74,-0.12 -1.2,-0.33 -0.98,-0.44 0.09,-0.17 -1.28,-0.86 -0.84,-0.42 -0.73,-0.36 -1.21,-1.02 -0.18,-0.25 -0.42,-0.39 -0.75,-0.48 0.01,-0.72 -0.02,-0.05 0.13,-0.34 0.04,-0.08 0.42,0.15 -0,-0.28l-0.36 -0.18c-0.15,-0.03 -0.42,-0.02 -0.58,-0.02 0.1,-0.22 -0.09,-0.15 0.41,-0.15l0 -0.46c-0.81,-0.36 -2.22,0.02 -3.19,-0.17 -0.22,-0.06 -0.61,0.07 -1.01,0.07 -0.42,0.01 -0.83,-0 -1.25,0.01 -0.01,0.29 -0.07,0.69 -0.11,1.03 -0.05,0.39 -0.16,0.39 -0.31,0.81 -0.12,0.36 -0.24,0.75 -0.5,1.02 -0.01,0.01 -0.04,0.03 -0.05,0.05 -0.02,0.01 -0.04,0.03 -0.05,0.05 -0.29,0.24 -0.9,0.46 -1.27,0.19 -0.2,-0.15 -0.03,-0.06 -0.22,-0.28l-0.34 -0.28c-0.23,-0.19 -0.05,0.01 -0.22,-0.27 -0.08,-0.13 -0.01,-0.06 -0.11,-0.2l-0.83 -0.66 -0.34 -0.72c-0.02,-0.01 -0.04,-0.03 -0.06,-0.05 -0.24,-0.18 -0.56,-0.25 -0.75,-0.47l-0.56 -0.68c-0.16,-0.23 0.43,-0.13 -0.34,-0.16 -0.01,-1.28 -0.29,-0.93 -0.84,-1.31 -0.33,-0.23 -0.07,-0.18 -0.32,-0.39 -0.11,-0.1 0.01,-0.04 -0.2,-0.12 -0.01,-0 -0.28,-0.06 -0.34,-0.07 -0.56,-0.15 -0.39,-0.28 -0.97,-0.46 -0.8,-0.24 -0.81,-0.38 -1.75,-0.38 -2.56,0 -8.77,-0.21 -10.56,0.36l-1.16 0.26c-0.32,0.04 -0.31,0.1 -0.56,0.15 -0.56,0.11 -2.24,0.04 -2.92,0.04z"/>
   <path class="fil1" d="M89.66 2.08c-0.78,0 -1.31,0.04 -1.94,0.1 -0.6,0.05 -1.4,-0.19 -1.93,-0.19 -0.19,0 -0.58,0.11 -1.02,0.1 -0.6,-0.01 -0.69,-0.12 -0.82,0.32l0.81 0.18c-0.84,0 -1.41,0.11 -2.33,0.1 -0.82,0 -1.64,0.01 -2.46,0.01l0 0.22 0.7 0.07c-0.36,0 -1.05,-0.07 -1.22,0.31l-0.82 -0.2c-0.15,0.42 -0.01,-0.02 -0.31,0.3l-0.09 0.11c-0.01,0.01 -0.07,0.16 -0.09,0.19 -0.68,0 -0.92,0.22 -1.64,0.21 -0.35,-0.01 -0.58,-0.04 -0.77,-0.02 -0,0 -0.34,0.04 -0.35,0.04l-1.97 0.28c-0.03,0.01 -0.05,0.02 -0.08,0.03 -0.02,0.01 -0.05,0.02 -0.07,0.03l-0.35 0.24c-0.29,0.38 0.11,-0.12 -0.08,0.22 -0.61,0.01 -3.06,0.13 -3.4,0.28 -0.48,0.21 0.25,0.24 -1.59,0.24 -0.6,0 -1.35,-0.04 -1.94,0.01 -0.66,0.05 -0.75,0.39 -1.42,0.41 -1.58,0.06 -0.99,0.29 -2.18,0.58 -0.47,0.11 -0.17,0.14 -0.7,0.22 -1.27,0.19 -0.57,0.3 -1.62,0.32 -0.35,0.5 -0.91,0.85 -1.49,1.06 -0.42,0.15 -0.45,0.36 -0.87,0.46 -0.8,0.19 -0.38,0.01 -0.61,0.51 -0.3,0 -0.87,-0.11 -0.94,0.2 -0.11,0.44 0.3,-0.19 -0.01,0.29 -0.09,0.14 -0.18,0.17 -0.35,0.24l-1.37 0.48c-0.28,0.2 -0.04,0.19 -0.49,0.23 0.08,0.22 0.33,0.16 0.31,0.31 -0.02,0.1 -0.27,0.12 -0.44,0.16 -0.86,0.22 -0.99,-0.18 -1.49,0.26l-0.24 0.17c-0.44,0.3 -0.08,-0.02 -0.37,0.43 -0.32,0.01 -0.47,-0.01 -0.77,0.06l-0.28 0.14c-0.01,0.01 -0.02,0.03 -0.03,0.04 -0.19,0.23 -0.28,0.45 -0.58,0.55 -0.2,0.06 -0.65,0.04 -0.88,0.05 -0.25,0.36 -0.35,0.39 -0.66,0.57 -0.22,0.12 -0.26,0.22 -0.34,0.27 -0.28,0.14 -0.29,0.03 -0.6,0.11l-0.86 0.37c-0.36,0.2 -1.12,1.07 -1.37,1.48 -0.2,0.32 -0.08,0.36 -0.38,0.65 -0.75,0.73 -0.23,0.65 -0.4,1.74l-0.04 0.17c-0.01,0.02 -0.02,0.06 -0.03,0.07 -0.13,0.42 -0.16,0.19 -0.44,0.48 -0.02,0.02 -0.03,0.04 -0.05,0.05l-0.76 0.66 -0.01 0.71c-0.48,0.01 -0.23,-0.05 -0.47,0.14 -0.22,0.18 -0.13,0.18 -0.29,0.42 -0.15,0.22 -0.19,0.21 -0.34,0.37 -0.33,0.37 -0.18,0.52 -0.58,0.74 -0.3,0.16 -0.38,0.23 -0.46,0.56 -0.09,0.36 0.09,0.04 -0.09,0.31 -0.13,0.19 -0.3,0.19 -0.52,0.2 -0.04,0.48 0.06,0.22 -0.28,0.43 -0.05,0.03 -0.07,0.01 -0.26,0.15 -0.02,0.01 -0.19,0.18 -0.21,0.2 -0.3,0.35 -0.46,0.53 -0.98,0.55 -0.02,0.39 -0.08,0.35 -0.11,0.7 -0.55,0.05 -0.68,0.27 -1.02,0.61l-0.46 0.46c-0.33,0.35 -0.27,0.72 -0.51,1.02 -0.34,0.43 -0.54,0.26 -0.96,0.46 -0.17,0.34 -0.05,0.21 -0.13,0.59 -0.11,0.5 -0.14,0.12 -0.18,0.63l-0.31 0 0 0.31c-0.57,0.05 -0.8,0.65 -1.12,1.02 -0.4,0.46 -0.34,0.83 -0.72,1.22 -0.02,0.02 -0.04,0.03 -0.05,0.05 -0.27,0.28 -0.18,0.32 -0.32,0.5 -0.16,0.2 -0.34,0.18 -0.63,0.19 -0,0.12 0.01,0.41 -0.01,0.5 -0.08,0.56 -0.41,0.28 -0.42,1.11l-0.8 0.01c-0.01,0.71 0.1,0.75 -0.28,1.15 -0.33,0.35 -0.34,0.48 -0.94,0.49 -0.04,3.07 -0.4,1.41 -0.43,2.43 -0.67,0 -0.87,0.1 -1.51,0.12 -0.01,0.35 -0.08,0.39 -0.11,0.71l-0.41 0 -0 0.41 -0.41 0 -0.01 0.81 -0.41 0 0 0.41 -0.31 0c-0.08,0.71 -0.23,-0.03 -0.58,0.64 -0.16,0.29 0.04,0.16 -0.43,0.5 -0.21,0.15 -0.09,-0.09 -0.21,0.19 -0.22,0.48 0.34,0.64 -0.31,0.82 -0.01,-0.02 -0.02,-0.09 -0.02,-0.08l-0.01 -0.27c-0,-0.12 0.44,-0.11 -0.16,-0.15 -0,0.34 0.05,0.47 -0.09,0.73 -0.26,0.5 0.2,-0.28 -0.09,0.12l-0.22 0.29c-0.39,0.45 -0.42,0.1 -0.43,1.3 -0.73,0.01 -0.39,-0.05 -0.67,0.24 -0.23,0.25 -0.38,0.18 -0.44,0.48 -0.26,1.32 -0.26,0.31 -1.16,1.4 -0.27,0.33 -0.16,0.24 -0.07,0.64 -0.53,0.02 -0.6,0.08 -0.61,0.62l-0.14 -0.08c-0.57,-0.23 -0.17,0.12 -1.04,0.95l-0.27 0.24c-0.44,0.31 -0.3,0.14 -0.52,0.69 -0.01,0.02 -0.02,0.05 -0.03,0.07 -0.15,0.33 -0.12,0.02 -0.21,0.39 -0.06,0.27 -0.02,0.61 -0.09,0.94l-0.41 1.64c-0.15,0.38 -0.22,0.11 -0.33,0.58 -0.11,0.53 -0.05,0.53 -0.27,0.97l-0.44 0.89c-0.11,0.21 -0.03,0.02 -0.17,0.34 -0.25,0.61 -0.37,0.45 -0.74,1.2 -0.2,0.42 -0.52,0.92 -0.76,1.28 -0.2,0.29 -0.16,0.24 -0.32,0.6 -0.28,0.62 -0.9,1.36 -1.14,1.92 -0.17,0.39 -0.2,0.68 -0.49,0.95 -0.49,0.46 -1,1.58 -1.2,2.25l-0.08 0.23c-0.25,0.7 -0.42,0.5 -0.69,1.04 -0.23,0.46 -0.37,1.21 -0.58,1.48 -0.44,0.54 -0.06,0.49 -0.2,1.1 -0.12,0.52 0.01,-0.03 -0.18,0.35 -0.21,0.44 0.08,0.29 0.08,0.69 0,0.29 -0.26,0.38 -0.37,0.65 -0.01,0.02 -0.02,0.05 -0.03,0.08 -0.01,0.02 -0.02,0.05 -0.03,0.08l-0.31 0.5c-0.01,0.02 -0.03,0.04 -0.04,0.06 -0.01,0.02 -0.03,0.04 -0.04,0.06 -0.15,0.31 -0.1,0.68 -0.1,1.03 -0.93,0.49 -0.38,0.99 -0.68,1.87 -0.18,0.52 -0.32,0.28 -0.47,1.16 -0.16,0.94 -0.6,1.66 -0.75,2.2 -0.11,0.4 -0,0.75 -0.22,1.11 -0.28,0.46 -0.14,-0.09 -0.22,0.48 -0.11,0.69 0.09,0.72 0.19,1.11 -0.02,0.02 -0.06,-0 -0.07,0.03 -0.01,0.03 -0.06,0.02 -0.07,0.03 -0.18,0.09 -0.08,-0 -0.2,0.11 -0.17,0.15 -0.13,0.18 -0.16,0.44 -0.09,0.83 -0.08,0.33 -0.27,0.85l-0.37 1.39c-0.08,0.32 -0.19,0.18 0.12,0.3 -0.15,0.39 -0.03,0.02 -0.25,0.27l-0.3 0.61c-0.12,0.42 -0.02,0.94 -0.06,1.37 -0.06,0.64 -0.15,0.37 -0.37,0.65 -0.29,0.36 -0.17,1.19 -0.25,1.69l-0.4 1.65c-0.02,-0.02 -0.03,-0.09 -0.04,-0.07l-0.1 -0.34c-0.02,-0.13 0,-0.43 0,-0.58l-0.27 1.91 -0.39 0.2c-0.01,0.89 -0.18,1.14 -0.22,1.94l-0.18 2.99c-0.05,0.38 0,0.73 -0.03,1.09 -0.08,0.74 -0.2,0.22 -0.2,1.94 -0.17,0.05 -0.08,-0.13 -0.2,-0.1 0,0.49 -0.07,1.35 -0.12,1.93 -0.03,0.38 -0.08,0.44 -0.1,0.92 -0.03,1.12 -0.28,2.47 -0.2,3.56 0.04,0.56 0.19,1.14 0.19,1.74 0,0.74 0.2,1 0.21,1.63l-0.11 3.17c0,0.42 0.02,0.03 0.15,0.25 0.24,0.42 0.15,0.77 0.15,1.38 0,0.78 -0.11,1.3 -0.11,1.94l-0.19 -0.81c0,0.58 0,1.15 0,1.73 -0,0.66 -0.11,0.92 -0.11,1.63 0,0.84 -0.16,1.87 0.07,2.68l-0.09 0.67c-0.47,0.75 0.06,0.68 -0.36,2.4 -0.04,0.17 -0.04,0.29 -0.04,0.47 0,0.36 0.03,0.67 -0.13,1 -0.01,0.02 -0.03,0.04 -0.04,0.06 -0.09,0.17 -0.09,0.17 -0.16,0.34 -0.53,1.24 -0.2,3.28 -0.14,4.61 0.16,0.1 0.01,-0.02 0.26,0.11 0.01,0.53 0.07,1.75 0.19,2.16 0.06,0.19 0.08,-0.01 0.12,0.48 0.02,0.21 0.01,0.36 0.04,0.58l0.21 5.44c0.18,0.05 -0.26,0.14 0.04,-0.05 0.19,-0.13 -0.09,-0.12 0.13,-0.05 0.01,1.07 -0.1,2.29 0.16,3.3 0.04,0.15 0.02,0.11 0.05,0.26 0.19,1.34 0.24,2.6 0.62,3.87 0.38,1.26 0.57,3.4 0.57,3.41 0.09,0.32 0.22,0.45 0.32,0.79 0.28,0.94 0.03,2.76 0.68,3.36 0.31,0.28 -0.01,0.68 0.29,1.18 0.02,0.03 0.07,0.09 0.08,0.12l0.19 0.74c0.09,0.6 0.24,0.28 0.37,0.85 0.23,1.03 0.48,0.62 0.62,1.73 0.1,0.78 0.42,0.95 0.57,1.26 0.2,0.44 0.13,0.8 0.3,1.23 0.01,0.02 0.02,0.05 0.03,0.07l1.14 2.63c0.29,0.66 0.46,-0.03 0.77,0.45 0,0 0.17,0.91 0.2,1.03 0.39,1.53 0.18,0.76 0.8,1.64 0.2,0.28 0.28,0.47 0.28,0.94l0.61 0c0.05,0.23 0,0.16 0.19,-0.09 0.04,0.47 0.03,0.19 0.24,0.47l0.24 0.58c0.2,0.62 -0.02,1.32 0.42,1.72 0.46,0.42 0.79,1.04 1.04,1.62l0.15 0.46c0.01,0.02 0.02,0.05 0.03,0.07 0.01,0.02 0.02,0.05 0.04,0.07l0.19 0.21c0.2,0.19 0.15,0.11 0.37,0.35l0.34 0.48c0.14,0.43 -0.13,0.11 0.2,0.51 0.17,0.21 0.25,0.15 0.38,0.44 0.19,0.42 0.15,0.73 0.77,0.75 -0.01,0.35 -0.07,0.42 -0.05,0.71 0.03,0.41 0.12,0.18 -0.04,0.7 0.87,0.52 0.24,0.05 0.57,0.77 0.28,0.6 0.34,-0.2 0.36,0.99 0.73,0.38 0.28,0.72 0.82,0.86 0.92,0.23 0.65,0.34 1.43,0.83 0.61,0.39 0.65,-0.08 0.97,0.88 0.12,0.35 0.2,0.34 0.46,0.54 0.02,0.01 0.04,0.03 0.06,0.05l1.04 1.11c0.2,0.48 0.29,0.35 0.53,0.69 0.3,0.43 -0.04,0.29 0.45,1.08l0.14 0.27c0.01,0.02 0.02,0.05 0.03,0.07 0.01,0.02 0.02,0.05 0.03,0.08l0.28 0.64c0.26,0.4 0.11,0.2 0.35,0.29l0.36 0.2c0.33,0.2 0.65,0.12 0.91,0.32l1.4 1.15c0.35,0.18 0.23,0.03 0.58,0.13 0.42,0.12 0.03,-0.03 0.39,0.23 0.16,0.11 0.23,0.14 0.37,0.24 0.09,0.06 0.25,0.21 0.32,0.3l0.27 0.43 0.92 0c0.1,0.37 0.04,0.28 0.33,0.38l0.53 0.19c0.41,0.31 0.37,0.58 0.37,1.06 0.67,0 0.59,0.16 0.6,-0.4l0.21 0c0,0.88 0.2,0.45 0.21,1.22 0.53,0 0.62,-0.11 0.77,0.36 0.27,0.86 -0.08,0.46 0.55,0.46 0.37,0 0.23,0.18 0.35,0.47 0.09,0.22 -0.05,0 0.15,0.25l0.25 0.26c0.08,0.11 0.29,0.46 0.33,0.6 0.08,0.27 0.05,0.56 0.05,0.86l0.61 0c0,0.73 0.28,1 0.56,1.58l0.23 0.48c0.25,0.45 0.51,0.26 0.97,0.46 0.55,0.24 -0.32,-0.16 0.12,0.07 0.27,0.14 0.17,-0.03 0.43,0.2 0.48,0.43 -0.29,0.14 0.64,0.46 0.73,0.25 0.35,0.5 1.37,0.77 0.78,0.2 1.35,0.04 2.03,0.32 0.41,0.17 0.74,0.09 1.17,0.16 0.39,0.07 0.14,0.07 0.46,0.15 1.03,0.24 0.46,0.01 1.73,0.41 0.37,0.12 0.56,0.09 0.98,0.14 0.34,0.04 -0.11,-0.04 0.18,0.02 0.27,0.06 0.17,0.06 0.23,0.08l0.51 0.3c0.16,0 0.34,-0.01 0.5,0.02 0.03,0.01 0.05,0.01 0.08,0.02l1.07 0.36c0.5,0.07 1.44,0.12 1.92,0.13 0.13,0.46 0.19,0.42 0.59,0.63 0.65,0.35 1.01,0.14 1.47,0.37 0.24,0.12 -0.04,0.01 0.18,0.12 0.27,0.14 0.37,0.02 0.6,0.31 0.36,0.47 -0.11,-0.14 0.02,0.26 1.06,0.02 0.73,0.24 1.53,0.31l1.92 0.22c0.4,0.08 0.38,0.16 0.83,0.2l3.27 0.49c2.3,0.2 0.68,-0.2 2.51,0.66l1.41 0.42c0.76,0.27 -0.04,0.34 0.81,0.5 0.67,0.13 1.64,0.1 2.36,0.2 0.43,0.06 0.75,0.03 1.18,0.05 0.52,0.01 0.65,0.1 1.22,0.11l1.22 0.21 0.1 0.28c0.31,0.01 0.72,-0.01 1.02,0.03 1.14,0.15 -0.09,0.3 2.86,0.3 0.73,0 0.89,0.28 1.87,0.14 0.84,-0.12 1.83,0.13 2.66,-0.09 0.96,-0.25 2.46,-0.36 3.52,-0.36 0.31,0 0.68,0.04 0.97,-0.04 1.26,-0.33 2.35,-0.08 4.06,-0.43 0.3,-0.06 0.7,-0.06 1.03,-0.1 1.3,-0.17 0.67,-0.34 1.9,-0.34 0.49,-0 1.45,-0.07 2,-0.14 0.66,-0.08 1.22,-0.26 1.98,-0.28 0.89,-0.02 0.18,-0.19 1.83,-0.31 0.41,-0.03 1.65,-0.11 2.02,-0.22 0.02,-0.01 0.05,-0.02 0.07,-0.03 0.03,-0.01 0.05,-0.02 0.08,-0.02l1.56 -0.27c0.54,-0.16 0.43,-0.02 0.91,-0.3l0.5 -0.31c0.39,-0.3 0.69,-0.15 1.13,-0.31 0.42,-0.15 0.12,-0.08 0.28,-0.21l0.4 -0.22c1.36,-0.52 0.95,-0.24 1.32,-0.88 0.47,0.04 0.24,0.19 0.62,-0.02l0.11 -0.09c0.02,-0.01 0.04,-0.04 0.05,-0.05 0.38,-0.27 1.16,-0.26 1.65,-0.39l1.27 -0.27c0.41,-0.18 -0.04,0.03 0.26,-0.16 0.47,-0.29 1.13,-0.32 1.55,-0.59 0.16,-0.1 0.24,-0.27 0.42,-0.39 0.19,-0.13 0.05,-0.02 0.26,-0.14 0.03,-0.02 0.11,-0.06 0.13,-0.07l1.47 -0.77c1.42,-0.67 2.34,-0.7 2.9,-0.98 0.57,-0.28 0.99,-0.3 1.56,-0.58l5.77 -3.42c0.14,-0.19 -0.03,0.07 0.07,-0.13 0.01,-0.02 0.02,-0.05 0.03,-0.07 0.09,-0.19 0.16,-0.15 0.34,-0.26 0.25,-0.16 0.14,-0.3 0.43,-0.49 0.38,-0.24 0.41,-0.06 0.68,-0.45 0.27,-0.39 0.81,-0.72 1.22,-0.91l0.73 -0.5c0.02,-0.01 0.04,-0.03 0.06,-0.04l0.96 -0.57c0.72,-0.33 0.14,-0.23 0.61,-0.5 0.02,-0.01 0.05,-0.02 0.07,-0.03 0.02,-0.01 0.05,-0.02 0.07,-0.04 0.04,-0.02 0.17,-0.12 0.19,-0.13 0.18,-0.15 0.23,-0.27 0.48,-0.43l0.91 -0.62c0.14,-0.09 0.05,-0.02 0.18,-0.13l0.76 -0.57c0.13,-0.09 0.19,-0.17 0.27,-0.24 0.23,-0.21 0.33,-0.26 0.75,-0.27 0.02,-0.39 -0.07,-0.37 0.17,-0.54 0.35,-0.24 0.42,-0.1 0.72,-0.52 0.3,-0.43 0.92,-0.75 1.46,-1.28 0.11,-0.11 0.1,-0.11 0.2,-0.21 0.11,-0.11 0.08,-0.06 0.21,-0.2l1.31 -1.03c1.06,-0.74 1.07,-0.91 1.97,-1.6l0.41 -0.41c0.21,-0.25 0.26,-0.42 0.51,-0.6l1.02 -0.61c0.02,-0.01 0.22,-0.15 0.24,-0.17l0.16 -0.15c0.02,-0.01 0.03,-0.04 0.05,-0.05l1.85 -1.3c0.44,-0.3 0.11,0.08 0.34,-0.39 0.34,-0.7 0.43,-0.3 0.92,-0.7 0.34,-0.27 0.4,-0.69 0.5,-1.04 0.19,-0.61 0.77,-0.67 0.81,-1.62 0.48,-0.02 0.51,0.05 0.73,-0.29l0.07 -0.14c0.13,-0.24 0.28,-0.44 0.54,-0.57l2.65 -1.64c0.02,-0.01 0.04,-0.03 0.06,-0.04l0.35 -0.26c0.02,-0.01 0.04,-0.03 0.06,-0.05 0.33,-0.27 0.56,-0.29 1.03,-0.3l0.08 -0.54c0.01,-0.02 0.02,-0.05 0.03,-0.07 0.01,-0.02 0.02,-0.05 0.03,-0.07 0.16,-0.35 0.46,-0.43 0.6,-0.62l0.12 -0.19c0.01,-0.02 0.03,-0.04 0.05,-0.05 0.13,-0.15 0.03,-0.02 0.16,-0.15l0.2 -0.21c0.02,-0.02 0.04,-0.04 0.05,-0.05l1.19 -1.66c0.74,-0.64 -0.16,-0.57 0.66,-0.85l0.35 -0.17c0.33,-0.25 0.02,-0.17 0.75,-0.78 0.02,-0.01 0.12,-0.13 0.15,-0.16l0.52 -0.6c0.36,-0.36 0.3,-0.08 0.88,-0.75l0.38 -0.33c0.41,-0.28 0.41,-0.61 0.7,-0.93l1.42 -1.85c0.35,-0.36 0.19,-0.06 0.35,-0.57 0.18,-0.54 -0,-0.18 0.38,-0.53 0.16,-0.15 0.07,-0.06 0.21,-0.2l0.54 -0.47c0.33,-0.2 0.01,0.17 0.31,-0.21 0.01,-0.02 0.02,-0.09 0.03,-0.08l0.05 -0.16c0.14,-0.45 0.36,-0.92 0.69,-1.24 0.02,-0.02 0.04,-0.03 0.05,-0.05l0.14 -0.17c0.48,-0.6 0.98,-1.26 0.99,-2.08l0.73 -0.58c0.02,-0.01 0.05,-0.02 0.07,-0.03 0,-0.16 -0.01,-0.33 0.02,-0.49l0.11 -0.3c0.15,-0.3 0.36,-0.35 0.46,-0.66 0.3,-0.88 0.26,-0.37 0.41,-0.81 0.03,-0.09 0.02,-0.15 0.05,-0.26l0.49 -0.72c0.54,-0.51 0.56,-1.15 0.84,-1.61 0.35,-0.58 0.29,-0.1 0.6,-0.62 0.24,-0.4 -0.02,-0.51 0.68,-0.54 0.01,-0.35 0.02,-0.48 0.25,-0.67l0.63 -0.69c0.02,-0.02 0.08,-0.08 0.1,-0.11l0.72 -0.91c0.35,-0.29 0.25,-0.18 0.36,-0.57l0.09 -0.31c0.01,-0.02 0.02,-0.05 0.03,-0.07l0.1 -0.2c0.14,-0.29 -0.05,0.07 0.1,-0.21 0.29,-0.55 0.55,-0.39 0.69,-1.15l0.44 -1.49c0.62,-1.2 -0.26,-0.98 0.5,-1.43 0.01,-0.01 0.05,-0.02 0.07,-0.04l0.01 -1.02c0.48,-0.28 0.21,0.15 0.4,-0.31 0.03,-0.33 -0.1,-0.3 0.04,-0.55 0.09,-0.17 0.07,-0.05 0.14,-0.28 0.22,-0.78 0.16,-0.82 0.66,-1.47 0.21,-0.27 0.06,-0 0.15,-0.27 0.06,-0.17 0.01,-0.16 0.08,-0.33 0.17,-0.39 0.88,-0.96 1.15,-1.5l0.34 -0.67c0.01,-0.02 0.03,-0.04 0.04,-0.06 0.36,-0.6 0.34,-1.49 0.58,-2.18 0.31,-0.91 0.06,-1.25 0.22,-1.93 0.08,-0.34 0.19,-0.27 0.47,-0.41 0,-0.4 0,-0.31 -0.08,-0.6 0.12,-0.07 0.27,-0.1 0.35,-0.15 0.34,-0.2 0.45,-0.6 0.71,-0.93l0.51 -0.72c0.4,-0.54 0.19,0.25 0.47,-0.97 0.11,-0.47 0.29,-0.5 0.42,-1.31 0.03,-0.21 0.05,-0.75 0.16,-0.95 0.23,-0.45 0.28,-0.13 0.32,-0.92 0.04,-0.83 0.52,-1.31 0.73,-2.11 0.01,-0.03 0.01,-0.05 0.02,-0.08 0.01,-0.02 0.02,-0.05 0.02,-0.07l0.23 -1.11c0.08,-0.59 0.15,-0.41 0.26,-0.85 0.17,-0.66 0.32,-2.4 0.41,-3.06 0.1,-0.77 0.09,-1.8 0.28,-2.47 0.62,-2.21 0.85,-16.15 0.83,-19.22l-0.11 -3.17c-0.02,-0.38 -0.12,-0.67 -0.16,-0.95 -0.09,-0.64 -0.01,-1.45 -0.1,-2.05 -0.1,-0.66 -0.03,-2.56 -0.35,-3.06 -0.19,-0.3 -0.16,-0.45 -0.24,-0.85 -0.08,-0.42 -0.18,-1.05 -0.41,-1.46l-0.14 -0.86c-0.13,-0.31 -0.36,-0.73 -0.42,-1.18 -0.2,-1.7 -1.07,-7.47 -1.73,-8.93 -0.12,-0.26 -0.14,-0.26 -0.23,-0.56 -0.15,-0.45 -0.11,-0.26 -0.25,-0.57 -0.37,-0.84 -0.12,-1.21 -0.89,-2.39 -0.31,-0.47 -0.32,-0.51 -0.49,-1.16 -0.16,-0.61 -0.25,-0.32 -0.55,-1.07l-0.22 -0.39c-0.19,-0.3 -0.42,-1.29 -0.75,-1.91l-0.45 -0.78c-0.49,-0.5 0.06,-0.45 -0.28,-1.14l-1.53 -3.57c-0.32,-1.13 0.02,-0.59 -0.59,-1.7 -0.05,-0.09 -0.03,-0.08 -0.07,-0.18l-0.34 -0.47c-0.14,-0.27 0.03,-0.17 -0.16,-0.45 -0.11,-0.16 -0.43,-0.25 -0.54,-0.47 -0.18,-0.36 -0.11,-0.8 -0.44,-1.19 -0.14,-0.16 -0.04,-0.03 -0.14,-0.17l-0.15 -0.25c-0.3,-0.4 -0.55,-0.44 -0.54,-1 0,-0.02 0.06,-0 0,-0.14 -0.11,-0.28 -0.42,-0.29 -0.62,-0.56l-0.36 -0.66c-0.23,-0.29 -0,-0.03 -0.3,-0.21 -0.2,-0.12 -0.21,-0.14 -0.36,-0.25 0,-0.37 0.08,-0.4 0.06,-0.61 -0.03,-0.33 -0.15,-0.32 -0.21,-0.47 -0.19,-0.44 -0.08,-0.57 -0.41,-0.91l-0.1 -0.11c-0.26,-0.31 -0.39,-0.93 -0.6,-1.35 -0.01,-0.02 -0.02,-0.05 -0.03,-0.07l-0.4 -0.42c-0.02,-0.01 -0.05,-0.02 -0.07,-0.04 -0.04,-1.4 -0.71,-0.69 -0.83,-1.83 -0.24,-0.12 -0.37,-0.12 -0.54,-0.34l-0.25 -0.36c-0.45,-0.72 -0.36,-0.21 -0.64,-1.09l-0.64 -1.29c-0.63,-1.34 -0.13,-0.94 -0.48,-1.56 -0.41,-0.72 -0.31,-0.89 -0.78,-1.57l-0.23 -0.38c-0.43,-0.68 -0.56,-0.56 -0.85,-1.49 -0.21,-0.67 -0.7,-0.61 -0.89,-1.26 -0.19,-0.7 0.12,-0.25 -0.31,-0.7 -0.32,-0.33 -0.25,-0.3 -0.26,-0.87l-1.21 -0.62 -0.37 -1.05 -0.34 -0.07c0.21,-0.63 0.18,-0.34 -0.5,-0.82 -0.44,-0.31 -0.52,-0.72 -0.54,-1.3 -0.7,-0.06 -1.18,-0.69 -1.49,-1.27l-0.76 -0.66c-0.34,-0.34 -0.25,-0.62 -0.8,-0.63l0 -0.24c0.29,-0.09 0.2,0.05 0.3,-0.39 -0.4,-0.22 -0.46,-0.24 -0.51,-0.79l-0.61 -0c-0.01,-0.73 0.04,-0.79 -0.32,-1.31 -0.15,-0.22 -0.16,-0.38 -0.39,-0.51 -0.15,-0.09 -0.14,0.07 -0.39,-0.23 -0.27,-0.33 -0.28,-0.97 -0.48,-1.36 -0.43,-0.85 -0.84,-0.44 -0.97,-1.4 -0.12,-0.89 -0.17,-0.24 -0.65,-0.54 -0.37,-0.23 -0.08,-0.04 -0.12,-0.37 -0.03,-0.27 0.05,-0.06 -0.15,-0.38 -0.46,0.01 -0.18,0.06 -0.61,0.2 0,-0.21 -0.09,-1.28 -0.15,-1.51 -0.06,-0.25 -0.11,-0.33 -0.32,-0.46 -0.37,-0.24 -0.33,0.2 -0.36,-0.47l-0.19 0.5c0,-0.47 0.07,-0.44 -0.24,-0.67 -0.4,-0.29 -0.35,0.06 -0.37,-0.6l0.2 -0.02c-0.02,-0.04 -0.2,-0.14 -0.22,-0.15 -0.47,-0.22 -0.26,-0.23 -0.46,-0.64 -0.15,-0.32 -0.13,-0.22 -0.37,-0.33 -0.35,-0.17 -0.31,-0.14 -0.79,-0.14 0.1,-0.31 0.23,-0.26 0.3,-0.51l-1.29 -0.54c-0.02,-0.01 -0.04,-0.03 -0.06,-0.04l-0.54 -0.17c-0.02,-0.01 -0.05,-0.02 -0.07,-0.03 -0.02,-0.01 -0.05,-0.02 -0.07,-0.03 -0.33,-0.15 -0.33,-0.21 -0.81,-0.22 -0.01,-0.36 0.02,-0.28 -0.1,-0.51 -0.94,0 -0.36,-0.24 -1.61,-0.41 -0.79,-0.11 -0.37,-0.3 -1.84,-0.3 -0.02,-0.02 -0.03,-0.09 -0.04,-0.08 -0.05,0.11 -0.07,-0.29 -0.27,-0.33 -0.35,-0.07 -0.72,0.06 -1.01,-0.14 -0.16,-0.11 0.12,-0.11 -0.36,-0.23 -0.24,-0.06 -0.35,-0.01 -0.56,-0.05 -0.55,-0.1 -0.1,-0.01 -0.37,-0.16l-1.49 -0.35c-0.07,-0.47 -0.11,0.29 -0.39,-0.1 -0.13,-0.18 -0.02,0.02 -0.06,-0.2 -0.01,-0.04 0.04,0 -0,-0.22 -0.04,-0.19 -0.04,-0.21 -0.26,-0.28 -0.46,-0.13 -1.19,0.05 -1.68,-0.06 -0.39,-0.09 -0.18,-0.17 -0.63,-0.17 -0.16,0 -0.13,0.2 -1.63,0.21 -0.6,0 -1.2,0.01 -1.8,0.01 -0.18,0.34 -0.05,0.29 -0.17,0.44 -0.13,0.16 -0.73,0.32 -0.99,0.37 -0.06,0.21 -0.11,-0.23 0.05,0.05 0.11,0.2 0.12,-0.09 0.05,0.14 -0.51,0.15 -0.92,0.62 -1.65,-0l-0.39 -0.42c-0.11,-0.11 -0.06,-0.04 -0.16,-0.14l-0.66 -0.77c-0.01,-0.02 -0.02,-0.05 -0.04,-0.07l-1.97 -1.7c-0.42,-0.69 -0.29,-0.36 -0.8,-0.83l-0.38 -0.44c-0.01,-0.02 -0.03,-0.04 -0.05,-0.05l-0.28 -0.33c-0.01,-0.02 -0.03,-0.05 -0.04,-0.06 -0.18,-0.23 -0.52,-0.36 -0.75,-0.57l-0.49 -0.32c-0.02,-0.01 -0.05,-0.02 -0.07,-0.03l-2.01 -0.95c-0.34,-0.18 -0.27,-0.6 -0.55,-0.66 -0.17,0 -0.58,0.02 -0.72,-0.01 -0.26,-0.05 -0.23,-0.1 -0.41,-0.21 -0.02,-0.01 -0.04,-0.03 -0.06,-0.04 -0.26,-0.14 -1.21,-0.25 -1.47,-0.25 -0.79,0 -1.56,0.19 -2.45,0.18 -0.44,-0 -0.89,0 -1.33,-0 -0.7,-0 -1.18,-0.3 -2.13,-0.31 -1.07,-0.02 -6.6,-0.1 -7.13,-0.21l-0.31 -0.09c-1.46,-0.54 -3.79,-0.21 -5.41,-0.21 -1.63,0 -3.27,0 -4.9,0 0.06,0.3 0.11,0.27 -0,0.51z"/>
   <path class="fil2" d="M79.88 51.17c-0.4,0.4 -0.63,0.15 -1.18,0.51l-0.29 0.21c-0.14,0.11 -0.44,0.28 -0.29,0.76 0.11,0.34 0.12,0.21 0.57,0.49 0,1.38 -0.83,2.4 -0.82,3.8l0.61 0.31c-0.02,0.44 -0.4,0.85 -0.61,1.48 -0.38,1.15 -0.62,0.87 -0.53,1.49 1.02,0.26 1.56,0.66 2.35,1.11 1.44,0.82 1.52,2.17 1.38,3.77 -0.09,1.05 -2.08,1.58 -2.89,2.13 -0.14,0.13 0.08,0.02 -0.25,0.15l-0.65 0.14c-0.03,0.01 -0.29,0.14 -0.4,0.18l-0.37 0.17c0.21,0.34 0.22,0.85 0.21,1.4 -0.12,0.1 -0.27,0.17 -0.44,0.28 -0.16,0.11 -0.26,0.21 -0.4,0.32 -1.96,1.48 -2.83,2.75 -4.37,3.89 -0.28,0.21 -0.53,0.34 -0.77,0.52 -0.03,0.44 0.1,3.81 0.26,4.31 0.16,0.5 0.06,0.07 0.21,0.38 0.37,0.73 0.07,1.22 0.98,1.56 0.59,0.22 0.83,0.63 1.2,1.36 0.58,1.16 1.07,1.56 1.51,2.46 0.21,0.42 -0.05,0.58 0.32,0.9l0.77 0.56c0.23,0.2 0.47,0.4 0.53,0.71 0.08,0.39 -0.05,0.84 -0.13,1.14 -0.13,0.45 -0.12,0.51 -0.11,1.08 0.92,0.54 1.01,1.25 1.13,1.67 0.15,0.53 1.19,2.1 2.05,2.61 0,1.07 -0.44,1.4 1.11,1.45 0.05,0.92 -0.12,0.93 0.37,1.56 0.33,0.42 0.4,0.8 0.66,1.18 0.32,0.47 0.47,0.23 0.44,1.51 -0,0.24 -0.04,0.66 0.04,0.87 0.09,0.25 -0.05,-0.05 0.2,0.29 0.12,0.16 0.08,0.03 0.16,0.26 -0.24,0.42 -0.14,0.2 -0.54,0.5 -0.17,0.13 -0.35,0.27 -0.43,0.48 -0.1,0.27 -0.16,1.92 0.09,2.44 0.56,1.14 0.38,1.26 0.48,2.5 0.29,0.2 0.41,0.17 0.68,0.41l-0.13 2.42c-0.52,0.25 -0.5,0.19 -0.78,0.65 -1.08,1.81 -0.03,0.82 -0.2,2.32 -0.09,0.78 -0.1,2.23 -0.29,2.9 -0.11,0.39 -0.18,0.9 -0.09,1.38l0.97 2.07c0.4,0.03 0.84,-0.05 1.12,0.09 -0.2,0.71 -1.19,0.62 -1.5,1.37 -0.39,0.96 0.01,0.49 -0.73,0.87 -0.08,0.55 0.23,0.99 0.47,1.46 0.21,0.39 0.41,0.87 0.64,1.31 0.53,1.02 0.99,1.68 0.33,2.86 -0.29,0.52 -1.15,1.32 -0.54,2.45l0.26 0.66c0.33,0.59 -0.08,-0.39 0.58,0.85 0.19,0.35 0.62,0.41 1.14,0.68l-0.61 0.37c-0.03,0.93 0.1,1.7 0.1,2.72 0.13,0.17 0.15,0.18 0.34,0.35 0.46,0.41 0.41,0.18 0.56,0.58 0.33,0.85 0.3,0.34 0.88,0.74 0.42,0.29 -0.11,0.14 0.68,0.74 0.31,0.24 0.16,-0.04 0.3,0.35 -0.24,0.51 -0.78,0.58 -1.27,0.79 0.02,0.69 0.23,0.65 0.53,1.05 -0.15,0.27 -0.32,0.39 -0.49,0.63 -1.44,2.06 -0.63,1.68 -0.82,2.22 -0.19,0.24 -0.36,0.36 -0.51,0.63 -0.96,1.72 -0.82,0.32 -1.16,1.9 -0.05,0.25 -0.31,1.6 -0.3,1.75 0.02,0.59 0.55,0.36 0.38,1.58l-0.56 0.07c-0.23,0.34 -0.09,0.48 -0.11,0.99 -0.94,0.86 -1.27,0.29 -1.59,0.78 -0.22,0.53 0.02,0.55 0.02,1.05 -0.19,0.11 -0.98,0.36 -0.82,1.18 0.04,0.2 0.03,0.07 0.06,0.22l0.02 0.21c-0.69,0.15 -0.84,0.01 -0.88,0.85 -0.06,1.28 -1.8,1.94 -2.87,2.1l-0.3 0.91c0.05,0.36 -0.45,3.23 -0.55,3.87 -0.21,1.33 -0.41,2.68 -0.46,4.04 -0.03,0.7 -0.18,1.3 -0.24,1.96 -0.17,1.92 0.08,8.8 0.09,11.09 0.01,1.53 0.41,3.98 1.66,5 0.08,0.07 0.56,0.34 0.7,0.42 0.32,0.17 0.67,0.2 1.01,0.02l2.1 -1.16c0.44,-0.29 0.19,-0.24 0.62,-0.42 0.78,-0.33 0.37,-0.02 0.97,-0.62 0.02,-0.02 0.04,-0.04 0.05,-0.05l1.76 -1.81c0.06,-0.08 0.06,-0.06 0.13,-0.16 0.79,-1.2 -0.03,0.22 1,-1.24 0.16,-0.22 0.32,-0.47 0.5,-0.64 0.32,-0.3 0.26,-0.23 0.44,-0.64 0.15,-0.35 0.31,-0.48 0.42,-0.71 0.7,-1.39 0.21,-0.4 0.91,-1.36 0.34,-0.47 0.82,-1.52 0.85,-1.6 0.92,-1.86 0.49,-1.65 1.01,-2.66l0.14 -0.27c0.23,-0.47 1.08,-2.9 1.35,-3.34l2.99 -4.87c0.53,-0.66 0.1,0.28 1.15,-1.09 0.86,-1.12 1.69,-2.18 3.08,-2.62 1.28,-0.41 2.55,-0.51 3.81,-0.06 2.66,0.94 3.1,2.41 4.62,4.35 1.36,1.74 2.23,3.55 3.37,5.6 1.25,2.24 1.82,3.69 3.56,5.52 0.74,0.78 1.25,1.63 2.31,2.17 0.93,0.48 2.69,0.88 3.63,0.14 0.36,-0.28 1.47,-2.08 1.84,-2.65 1.5,-2.33 -1.23,-6.19 -1.86,-8.41 -0.28,-0.97 -1.58,-3.72 -2.02,-4.71 -0.22,-0.49 -0.29,-1.24 -0.45,-1.79 -0.2,-0.7 -0.56,-1.25 -0.04,-1.73 0.51,-1.22 0.18,-1 -0.52,-2.54 -0.47,-1.04 -0.6,-1.06 -1.82,-1.61 -0.97,-0.44 -1.01,-0.75 -1.81,-1.26l-0.43 -0.28c-0.02,-0.01 -0.04,-0.03 -0.06,-0.04 -0.53,-0.28 -1.16,-0.15 -1.72,-0.05 -1.05,0.18 -1.78,0.48 -2.84,0.62 -0.71,0.09 -1.49,0.07 -2.31,0.06 -0.03,-0.71 -0.05,-1.5 0.09,-2.06l-0.28 -0.18c-0.5,-0.38 -0.93,-0.85 -1.54,-0.99 -0.22,-0.05 -0.62,-0.1 -0.82,-0.12 -0.21,-0.59 -0.13,-0.3 -0.39,-0.73 -0.16,-0.26 -0.15,-0.54 -0.28,-0.83 -0.3,-0.71 -0.73,-0.68 -0.89,-1.34 -0.41,-1.75 -0.9,-1.14 -1.55,-1.84 -0.16,-0.17 -0.34,-0.42 -0.49,-0.59 0.14,-0.44 0.27,-0.09 0.16,-0.67 -0.08,-0.42 -0.15,-0.12 -0.16,-0.75 -0.02,-1.42 -0.44,-1.35 -0.16,-1.76 0.01,-0.02 0.03,-0.04 0.04,-0.06 0.47,-0.65 0.98,-0.43 1.11,-1.05l0.07 -0.44c0.37,-1.57 -0.21,-0.94 -0.42,-1.74 -0.11,-0.43 -0.11,-1.11 0.1,-1.41 0.43,-0.61 0.15,-1.09 0.34,-1.29 0.46,-0.24 0.47,0.09 1.02,0.1 0.2,-0.35 0.43,-0.8 0.42,-1.32 -0.2,-0.14 -0.41,-0.1 -0.49,-0.31 0.37,-0.4 0.38,0.06 0.87,-0.54 0.57,-0.69 0.12,-0.52 0.2,-1.08 0.07,-0.56 0.74,0.01 0.77,-0.63 0.03,-0.56 0.01,-0.21 -0.34,-0.42 -0.17,-0.11 -0.22,-0.14 -0.36,-0.23 0.03,-1.17 0.62,-0.87 0.22,-1.65 -0.02,-0.04 -0.13,-0.26 -0.13,-0.27 -0.09,-0.26 -0.08,-0.42 -0.13,-0.76 -0.12,-0.79 0.08,-1.78 -0.24,-2.44 -0.25,-0.52 0.1,-0.75 0.16,-1.36 0.08,-0.81 -0.12,-0.85 0.83,-1.19 0,-0.24 0.04,-0.51 -0.05,-0.73l-0.27 -0.35c-0.25,-0.4 0.21,-0.82 -0.13,-1.28 -0.01,-0.02 -0.03,-0.04 -0.05,-0.06 -0.25,-0.36 -0.11,-0.63 -0.1,-1.07 -0.19,-0.14 -0.39,-0.13 -0.61,-0.2 -0,-0.52 0.06,-0.84 0.3,-1.28 0.2,-0.37 0.27,-0.72 0.43,-1.12l1.2 -1.81c0.66,-0.38 0.52,-0.22 0.71,-0.94 0.31,-1.14 2.01,-1.5 1.96,-2.63l-1.84 -0.04c-0.09,-0.24 -0.1,-0.23 -0.11,-0.53l-0.09 -0.66c-0.46,-1 -0.68,-0.77 -1.18,-1.48 -0.27,-0.38 0.15,-0.13 -0.42,-0.34 -0.3,-0.11 -0.55,-0.12 -0.72,-0.27 -0.34,-0.3 0.27,0.27 -0.14,-0.16 -0.31,-0.32 -0.92,-0.38 -1.37,-0.57 -0.84,-0.37 -1.4,-0.07 -2.07,-0.57l-0.01 -0.63c-0.02,-0.02 -0.06,-0.04 -0.08,-0.06 -0.02,-0.01 -0.05,-0.04 -0.07,-0.06 -0.02,-0.02 -0.05,-0.04 -0.07,-0.05 -0.55,-0.5 -0.56,-1.67 -0.38,-2.31 0.16,-0.58 0.1,-0.84 0.21,-1.33 0.35,-1.63 -0.15,-1.92 0.06,-2.87 0.1,-0.45 0.16,-1.21 0.39,-1.55 0.01,-0.02 0.03,-0.04 0.04,-0.06 0.01,-0.02 0.03,-0.04 0.04,-0.06l0.09 -0.11c0.24,-0.29 0.5,-0.52 0.84,-0.61 0.52,-0.14 0.21,0.06 0.53,-0.24 0.56,-0.54 1.05,-1.07 1.38,-1.79 0.18,-0.38 0.46,-0.55 0.66,-0.87 0.7,-1.06 0.19,-1.37 0.84,-1.5 0.28,-0.05 0.44,0.08 0.74,-0.08 0.47,-0.25 0,-0.97 1.5,-1.53 0.68,-0.26 0.18,-0.53 0.71,-0.82 0.62,0.08 0.02,0.28 0.82,0.53 0.49,-0.03 0.85,-1.4 1.11,-1.69 0.24,-0.27 -0,-0.23 0.56,-0.57 0.54,-0.33 0.95,-0.52 0.23,-0.99 -0,-0.65 0.1,-0.85 0.12,-1.47 0.04,-0.86 -0.38,-1.12 -0.06,-1.61 0.1,-0.16 0.06,-0.09 0.13,-0.18 1.57,-1.88 0.67,-0.95 1.87,-1.7l0.94 -0.49 -0.04 -0.44c-0.02,-0.37 -0.11,-0.35 -0.22,-0.64 -0.11,-0.27 -0.1,-0.41 -0.16,-0.68 -0.25,-1.08 -0.68,-3.24 -0.65,-4.19 -0.64,-0.71 0.15,-5.38 0.02,-6.67 -0.62,0.02 -0.54,0.07 -0.94,0.34 -1.33,0.91 -0.91,0.23 -1.69,0.18 -0.34,-0.02 -0.67,0.07 -1.02,0.02 -0.37,-0.06 -0.48,-0.25 -0.91,-0.22 -0.57,0.04 -0.15,0.18 -0.72,0.31 -0.44,-0.1 -0.5,-0.32 -0.84,-0.39 -0.77,-0.14 -0.71,0.41 -1.79,-0.27 -0.43,-0.27 -0.37,-0.1 -0.51,-0.64 -0.28,-1.1 -2.47,-1.17 -3.27,-0.79 -0.48,0.23 -0.98,1.31 -2.02,1.64 -0.42,0.13 -0.41,-0.05 -0.78,0.15 -0.22,0.11 -0.21,0.39 -0.52,0.29 -0.37,-0.12 -0.04,-0.34 -0.56,-0.37 -0.38,-0.02 -0.29,0.15 -0.61,0.36 -0.68,-0.24 0.11,-0.23 -0.71,-0.35 -0.47,-0.07 -0.35,0.03 -0.78,-0.22l-1.3 -0.73c-0.81,-0.46 -2.04,0.3 -1.55,-2.45 0.15,-0.86 0.96,-2.2 1.41,-2.67 1.05,-1.11 0.49,-0.97 1.92,-2 -0.08,-0.42 -0.19,-0.34 -1,-0.71 -1.31,-0.59 -1.13,-0.39 -1.14,-1.61 -0.01,-0.6 -0.03,-0.47 -0.21,-0.91 -0.21,-0.53 -0.07,-1.38 -0.12,-2.02 -0.49,-0.11 -0.81,0.08 -0.87,-0.34 -0.07,-0.51 0.25,-0.27 0.27,-0.91 -0.22,-0.18 -0.91,-0.37 -1.24,-0.51 -0.08,-2.18 -0.19,-2.37 -1.41,-2.3 -1.07,0.13 -2.62,0.46 -3.55,0.78 -0.67,0.23 -2.86,0.85 -3.49,0.84z"/>
   <path class="fil3" d="M116.03 155.16c0.45,-0.26 0.37,-0.4 0.65,-0.74l0.39 0.29c-0.34,-0.52 -0.67,-0.6 -0.8,-1.31 0.16,-0.39 -0.07,-0.04 0.39,-0.33 0.45,-0.28 0.92,-0.68 1.23,-1.1 0.68,-0.91 -0.25,-1.54 0.86,-2.24 0.11,-1.19 -0.53,-2.11 -1.18,-3.04 -0.23,-0.32 -0.36,-0.62 -0.7,-0.79 0.28,0.17 0.41,0.38 0.56,0.65 0.29,0.5 0.72,1.05 0.86,1.62 0.42,1.8 -0.43,1.13 -0.53,1.89 -0.13,0.93 0.52,0.77 -0.22,1.84 -0.16,0.23 -0.53,1.07 -1.17,0.94 -0.75,-0.15 -1.39,-2.42 -1.55,-3.05l-1.41 -3.66c-0.06,-0.12 -0.13,-0.31 -0.18,-0.45l-0.29 -0.84c-0.13,-0.52 -0.12,-0.43 -0.27,-0.84l-0.22 -0.69c-0.01,-0.03 -0.02,-0.05 -0.03,-0.08l-1.16 -2.93c-0.27,-1.09 -0.61,-1.8 -0.83,-3.15 -0.03,-0.21 -0.14,-0.7 -0.23,-0.84 -0.45,-0.74 -0.16,-1.11 -0.63,-2.77 -0.11,-0.41 -0.11,-0.64 -0.18,-1.07 -0.21,-1.2 -0.53,-2.52 -0.56,-4.05 -0.03,-1.37 -0.32,-2.65 -0.34,-4.18 -0.03,-2.79 0.51,-5.33 1.38,-7.69 0.62,-1.69 1.07,-1.52 0.19,-3.44l-1.19 -2.15c-0.1,-0.87 0.79,-0.11 0.48,-2.93 -0.11,-0.94 -0.43,-1.1 -0.65,-1.61 -0.18,-0.41 -0.11,-0.52 -0.23,-0.89 -0.11,-0.33 -0.54,-1.14 -0.64,-1.59 -0.25,-1.16 -0.88,-1.58 -0.52,-2.42 0.28,-0.65 2.16,-1.14 2.47,-1.27 0.31,-0.13 0.47,-0.26 0.73,-0.4 0.58,-0.32 0.51,0.03 1.16,-0.59 0.02,-0.01 0.04,-0.04 0.05,-0.05 0.51,-0.48 0.04,-0.05 1.15,-0.24 0.47,-0.08 2.42,-0.71 3.4,-0.23 0.81,0.4 0.39,0.7 1.77,1.1 0.61,0.17 0.93,0.18 1.53,0.41 1.71,0.67 0.96,0.34 1.37,1.45 0.1,0.28 0.21,0.47 0.4,0.64l1.1 0.8c0.01,0.68 -0.09,1.5 0.26,2.12 0.11,0.21 0.05,-0.01 0.13,0.26 0.12,0.37 0.09,0.83 0.16,1.28 0.07,0.55 0.16,0.43 -0.17,0.74l-0.18 0.17c0.38,-0.09 0.32,-0.13 0.62,-0.24 0.28,-0.11 0.53,-0.14 0.78,-0.19 -0.1,-0.18 -0.09,-0.28 0.5,-0.46 1.28,-0.38 0.65,-0.42 1.27,-1.08 0.39,-0.4 3.32,-1.64 3.95,-1.79 0.02,-0.02 0.05,-0.04 0.07,-0.06l0.31 -0.39c0.82,-0.01 0.94,-0.11 1.62,-0.26 0.64,-0.14 0.94,-0.04 1.24,-0.56 0.32,0.19 1.41,-0.06 1.73,-0.15 0.03,-0.01 0.05,-0.02 0.08,-0.03 0.03,-0.01 0.05,-0.02 0.08,-0.03 0.02,-0.01 0.05,-0.02 0.07,-0.03 0.11,-0.04 0.05,-0.02 0.22,-0.07 1.12,-0.35 1.86,-0.21 1.89,-0.62 1.06,0.26 0.07,-0.02 0.65,-0.11 0.4,-0.06 1.33,-0.04 1.96,-0.17 1.29,-0.27 4.04,-0.29 4.64,-0.59 0.03,-1.43 -0.4,-0.49 -0.38,-1.64l1.43 -0.88c1.26,-0.8 1.67,-0.67 2.17,-1.61 0.46,-0.85 1.82,-1.88 0.95,-4.03 -0.3,-0.75 -0.31,-0.97 -1.12,-1.17 -3.23,-0.8 -2.59,-0.32 -3.02,-1.43 -0.47,-0.04 -0.32,-0.05 -0.75,0.12 -0.92,0.05 -1.73,0.39 -2.45,0.4l-3.77 -0.46c-0.42,-0.08 -0.74,-0.2 -1.19,-0.26 -0.82,-0.11 -1.55,-0.13 -2.42,-0.3 -0.83,-0.16 -2,-0.07 -2.66,-0.23 -2.22,-0.55 -5.4,-0.21 -7.84,-0.51 -0.9,-0.11 -1.64,-0.22 -2.41,-0.43 -0.8,-0.21 -3.51,-1.27 -3.98,-1.65 -0.54,-0.44 -1.06,-0.81 -1.52,-1.23 -0.5,-0.45 -0.91,-1.17 -1.31,-1.54 -1.96,-1.85 -2.82,-4.82 -3.21,-5.23l0.04 0.44 -0.94 0.49c-1.2,0.75 -0.3,-0.18 -1.87,1.7 -0.07,0.09 -0.03,0.02 -0.13,0.18 -0.32,0.49 0.1,0.75 0.06,1.61 -0.03,0.62 -0.13,0.82 -0.12,1.47 0.72,0.47 0.31,0.66 -0.23,0.99 -0.56,0.34 -0.32,0.3 -0.56,0.57 -0.25,0.29 -0.62,1.66 -1.11,1.69 -0.79,-0.25 -0.2,-0.45 -0.82,-0.53 -0.53,0.29 -0.03,0.57 -0.71,0.82 -1.5,0.56 -1.03,1.29 -1.5,1.53 -0.3,0.16 -0.46,0.02 -0.74,0.08 -0.65,0.12 -0.14,0.43 -0.84,1.5 -0.21,0.32 -0.49,0.49 -0.66,0.87 -0.33,0.71 -0.82,1.25 -1.38,1.79 -0.32,0.3 -0.01,0.11 -0.53,0.24 -0.34,0.09 -0.61,0.32 -0.84,0.61l-0.09 0.11c-0.01,0.02 -0.03,0.04 -0.04,0.06 -0.01,0.02 -0.03,0.04 -0.04,0.06 -0.23,0.34 -0.29,1.1 -0.39,1.55 -0.21,0.95 0.28,1.25 -0.06,2.87 -0.1,0.49 -0.05,0.74 -0.21,1.33 -0.18,0.64 -0.17,1.81 0.38,2.31 0.02,0.02 0.05,0.04 0.07,0.05 0.02,0.02 0.05,0.04 0.07,0.06 0.02,0.02 0.05,0.04 0.08,0.06l0.01 0.63c0.68,0.5 1.23,0.2 2.07,0.57 0.45,0.2 1.06,0.25 1.37,0.57 0.41,0.42 -0.2,-0.14 0.14,0.16 0.18,0.15 0.42,0.16 0.72,0.27 0.57,0.21 0.15,-0.04 0.42,0.34 0.5,0.71 0.72,0.48 1.18,1.48l0.09 0.66c0.01,0.31 0.02,0.3 0.11,0.53l1.84 0.04c0.06,1.13 -1.65,1.49 -1.96,2.63 -0.19,0.72 -0.05,0.56 -0.71,0.94l-1.2 1.81c-0.16,0.4 -0.24,0.75 -0.43,1.12 -0.24,0.44 -0.31,0.76 -0.3,1.28 0.22,0.08 0.42,0.06 0.61,0.2 -0.01,0.44 -0.15,0.71 0.1,1.07 0.01,0.02 0.03,0.04 0.05,0.06 0.34,0.46 -0.12,0.89 0.13,1.28l0.27 0.35c0.08,0.22 0.05,0.49 0.05,0.73 -0.95,0.34 -0.75,0.38 -0.83,1.19 -0.06,0.6 -0.41,0.84 -0.16,1.36 0.32,0.66 0.12,1.66 0.24,2.44 0.05,0.34 0.04,0.51 0.13,0.76 0,0 0.11,0.23 0.13,0.27 0.4,0.78 -0.2,0.48 -0.22,1.65 0.15,0.09 0.19,0.12 0.36,0.23 0.35,0.21 0.37,-0.14 0.34,0.42 -0.04,0.65 -0.7,0.08 -0.77,0.63 -0.08,0.56 0.37,0.39 -0.2,1.08 -0.49,0.6 -0.49,0.13 -0.87,0.54 0.08,0.2 0.29,0.17 0.49,0.31 0.01,0.52 -0.22,0.97 -0.42,1.32 -0.55,-0.01 -0.56,-0.34 -1.02,-0.1 -0.19,0.2 0.09,0.68 -0.34,1.29 -0.21,0.3 -0.21,0.98 -0.1,1.41 0.21,0.8 0.79,0.17 0.42,1.74l-0.07 0.44c-0.13,0.62 -0.64,0.41 -1.11,1.05 -0.01,0.02 -0.03,0.04 -0.04,0.06 -0.28,0.41 0.13,0.34 0.16,1.76 0.01,0.63 0.08,0.33 0.16,0.75 0.11,0.58 -0.02,0.23 -0.16,0.67 0.15,0.18 0.34,0.42 0.49,0.59 0.65,0.7 1.14,0.09 1.55,1.84 0.15,0.66 0.58,0.64 0.89,1.34 0.13,0.3 0.12,0.57 0.28,0.83 0.26,0.44 0.18,0.15 0.39,0.73 0.2,0.02 0.6,0.07 0.82,0.12 0.61,0.13 1.04,0.61 1.54,0.99l0.28 0.18c-0.14,0.56 -0.12,1.35 -0.09,2.06 0.82,0 1.6,0.03 2.31,-0.06 1.06,-0.14 1.79,-0.44 2.84,-0.62 0.56,-0.09 1.19,-0.23 1.72,0.05 0.02,0.01 0.04,0.03 0.06,0.04l0.43 0.28c0.8,0.52 0.83,0.82 1.81,1.26 1.22,0.55 1.35,0.57 1.82,1.61 0.7,1.54 1.04,1.32 0.52,2.54z"/>
   <path class="fil3" d="M58.3 90.69c-0.5,0.31 -4.99,1.02 -6.17,1.18l-0.85 0.24c0.06,1.11 0.3,0.73 0.64,1.44 0.28,0.58 0.38,0.82 0.74,1.31 0.2,0.28 0.24,0.28 0.38,0.63l0.34 0.67c0.48,1.37 -1.78,1.66 3.18,3.17 1.53,0.46 2.98,0.1 4.5,0.31 1.26,0.17 3.24,0.17 4.54,0.23 0.76,0.04 1.55,-0.12 2.05,0.29 0.62,0.51 0.23,0.92 0.61,1.74 0.18,0.05 0.15,-0.31 0.14,-0.04 0.02,0.02 0.13,0.14 0.15,0.15l0.25 0.17c0.02,0.01 0.05,0.03 0.06,0.04l0.36 0.25c0.53,0.24 1.34,0.14 2.02,0.21 0.17,0.29 0.29,0.76 0.51,1.12 0.31,0.51 0.89,0.34 1.24,2.02 0.37,1.83 -1.09,1.47 -1.36,3.49 -0.14,1.01 -0.56,1.72 0.06,2.81l1.93 3.78c0.28,0.62 0.53,1.63 0.57,2.29 0.03,0.39 0.13,0.52 0.2,0.79 0.2,0.77 0.08,1.76 0.73,3.16 0.58,1.25 0.08,0.85 0.02,1.48l0.24 0.1c0.15,0.07 0.09,0.02 0.21,0.1 0.03,0.8 -0.33,0.71 -0.34,1.52 -0.02,1.25 -0.13,3.05 -0.33,4.28l-0.17 0.4c-0.32,0.55 0.1,0.08 0.13,1.14l0.09 3.37c0.06,1.28 0.37,3.17 0.3,4.3l0.19 0.35 2.08 -0.07c0.45,0.04 0.47,0.23 1.35,0.8l0.41 0.3c0.8,0.5 0.69,0.73 1.45,1.31 0.33,0.26 0.1,-0.01 0.32,0.39 0.54,0.97 0.65,1.31 1.25,1.61 -0.02,0.31 -0.12,0.47 -0.18,0.65 -0.13,0.37 -0.1,0.41 -0.1,0.86 -0.02,1.72 0.07,0.93 0.31,1.43 -0.17,0.29 -0.08,0.47 -0.08,0.47 0.09,0.58 -0.02,0.11 0.07,0.14 -0.61,0.1 -0.01,-0.06 -0.29,0.23l0.56 -0.07c0.17,-1.22 -0.35,-0.99 -0.38,-1.58 -0.01,-0.16 0.25,-1.51 0.3,-1.75 0.34,-1.58 0.2,-0.18 1.16,-1.9 0.15,-0.27 0.31,-0.39 0.51,-0.63 0.19,-0.54 -0.63,-0.16 0.82,-2.22 0.17,-0.24 0.34,-0.37 0.49,-0.63 -0.3,-0.4 -0.51,-0.36 -0.53,-1.05 0.49,-0.2 1.03,-0.28 1.27,-0.79 -0.14,-0.39 0.01,-0.11 -0.3,-0.35 -0.79,-0.6 -0.26,-0.46 -0.68,-0.74 -0.58,-0.39 -0.55,0.11 -0.88,-0.74 -0.15,-0.4 -0.1,-0.16 -0.56,-0.58 -0.19,-0.17 -0.21,-0.18 -0.34,-0.35 -0,-1.03 -0.13,-1.79 -0.1,-2.72l0.61 -0.37c-0.52,-0.27 -0.95,-0.34 -1.14,-0.68 -0.66,-1.24 -0.25,-0.26 -0.58,-0.85l-0.26 -0.66c-0.62,-1.13 0.25,-1.93 0.54,-2.45 0.66,-1.18 0.2,-1.83 -0.33,-2.86 -0.23,-0.44 -0.43,-0.92 -0.64,-1.31 -0.24,-0.46 -0.55,-0.9 -0.47,-1.46 0.73,-0.38 0.34,0.09 0.73,-0.87 0.31,-0.75 1.3,-0.66 1.5,-1.37 -0.28,-0.14 -0.72,-0.06 -1.12,-0.09l-0.97 -2.07c-0.09,-0.48 -0.02,-1 0.09,-1.38 0.2,-0.67 0.2,-2.12 0.29,-2.9 0.17,-1.49 -0.87,-0.51 0.2,-2.32 0.27,-0.46 0.26,-0.4 0.78,-0.65l0.13 -2.42c-0.27,-0.24 -0.4,-0.21 -0.68,-0.41 -0.1,-1.24 0.08,-1.36 -0.48,-2.5 -0.25,-0.52 -0.19,-2.17 -0.09,-2.44 0.08,-0.21 0.25,-0.35 0.43,-0.48 0.4,-0.3 0.31,-0.08 0.54,-0.5 -0.08,-0.23 -0.04,-0.1 -0.16,-0.26 -0.26,-0.34 -0.12,-0.04 -0.2,-0.29 -0.07,-0.21 -0.04,-0.63 -0.04,-0.87 0.02,-1.28 -0.12,-1.05 -0.44,-1.51 -0.26,-0.38 -0.33,-0.76 -0.66,-1.18 -0.49,-0.63 -0.32,-0.65 -0.37,-1.56 -1.54,-0.05 -1.11,-0.38 -1.11,-1.45 -0.87,-0.51 -1.91,-2.08 -2.05,-2.61 -0.12,-0.43 -0.21,-1.13 -1.13,-1.67 -0.01,-0.57 -0.02,-0.63 0.11,-1.08 0.08,-0.3 0.21,-0.75 0.13,-1.14 -0.07,-0.31 -0.31,-0.51 -0.53,-0.71l-0.77 -0.56c-0.37,-0.33 -0.12,-0.48 -0.32,-0.9 -0.44,-0.9 -0.93,-1.3 -1.51,-2.46 -0.37,-0.73 -0.61,-1.14 -1.2,-1.36 -0.91,-0.34 -0.61,-0.83 -0.98,-1.56 -0.16,-0.31 -0.05,0.11 -0.21,-0.38 -0.17,-0.5 -0.3,-3.87 -0.26,-4.31 0.24,-0.19 0.49,-0.32 0.77,-0.52 1.55,-1.14 2.42,-2.41 4.37,-3.89 0.13,-0.1 0.24,-0.21 0.4,-0.32 0.17,-0.11 0.32,-0.18 0.44,-0.28 0.01,-0.55 -0,-1.05 -0.21,-1.4l0.37 -0.17c0.11,-0.04 0.37,-0.17 0.4,-0.18l0.65 -0.14c0.33,-0.13 0.11,-0.02 0.25,-0.15 -0.55,0.11 -0.58,-0.02 -1.08,0.2 -0.37,0.16 -0.56,0.16 -1.05,0.2 -0.57,0.05 -1.25,-0.4 -1.72,-0.64 -0.68,-0.35 -2.28,-1.81 -2.35,-2.59 -0.14,-1.54 0.44,-2.43 1.6,-3.35 0.4,-0.32 1.12,-0.56 1.66,-0.78 0.85,-0.34 1.21,-0.17 2.09,-0.04 -0.08,-0.61 0.15,-0.34 0.53,-1.49 0.21,-0.63 0.59,-1.04 0.61,-1.48l-0.61 -0.31c-0,-1.41 0.82,-2.42 0.82,-3.8 -0.45,-0.28 -0.46,-0.15 -0.57,-0.49 -0.15,-0.47 0.15,-0.65 0.29,-0.76l0.29 -0.21c0.54,-0.36 0.78,-0.11 1.18,-0.51l-1.34 0.06c-0.31,0.19 -0.58,0.18 -0.96,0.22 -0.2,0.02 -0.54,0.06 -0.8,0.09 -2.78,0.37 -1.04,1.91 -2.23,3.45l-3.76 3.92c-0.55,-0.21 0.4,0.29 -0.13,-0.1 -0.33,-0.25 -0.13,-0.21 -1.02,-0.21 -0.25,-0.37 -0.24,-0.33 -0.58,-0.64 -0.23,-0.21 -0.11,-0.13 -0.35,-0.24l-0.31 -0.13c-0.01,-0.04 -0.06,-0.02 -0.08,-0.04 -0.32,-0.36 -0.22,-1.78 -0.15,-2.3 0.27,-2.07 -0.56,-2.47 0.93,-4.2 0.45,-0.52 1.19,-0.79 0.83,-1.56 -0.69,-0.53 -0.45,-0.12 -0.64,-0.61 0.26,-0.54 0.86,-0.42 0.65,-1.12 -0.25,-0.12 -0.39,-0.07 -0.68,-0.2 -0.39,-0.18 -0.16,-0.17 -0.51,-0.33l-0.36 0.52c-0.01,-0.02 -0.03,0.05 -0.05,0.07 -0.58,-0.27 -0.77,-0.5 -1.63,-0.67 -2.25,-0.43 -3.91,-0.57 -4.58,1.53 -1.06,3.32 1.66,5.2 3.21,7.27 0.87,1.16 1.81,2.82 2.41,4.13 0.8,1.75 1.23,4.92 1.51,7.1 0.13,0.97 1.52,12.83 1.51,13.81 -0.01,1.89 -0.42,4.51 0.19,6.16 0.3,0.8 1.01,2.51 0.99,3.33 -0.02,0.55 -0.15,1.54 -0.86,1.49 -0.57,-0.04 -0.39,-0.24 -0.53,-0.69 -0.14,-0.45 -0.15,-0.15 -0.34,-0.68 -0.75,-2.18 -0.45,-0.62 -1.16,-2.08 -0.29,-0.58 -0.35,-0.48 -0.61,-0.57 -0.05,1.84 1.65,1.27 -2.38,1.65 -2.17,0.2 -3.25,0.44 -5.29,0.65 -1.39,0.14 -1.47,0.33 -2.51,0.42z"/>
   <path class="fil4" d="M65.97 62.59c0.89,2.2 0.48,4.2 0.72,6.46l0.61 4.8c0.02,0.23 0.06,0.54 0.12,0.77 0.5,1.75 -0.09,2.1 0.74,3.63 0.52,0.96 0.13,5.48 0.11,6.83 -0.01,0.6 0.03,1.25 0,1.84 -0.03,0.58 -0.14,0.97 -0.25,1.49 -4.44,0.21 -5.84,-0.13 -10.36,0.65 -0.56,0.1 -2.85,0.46 -3.23,0.4 -0.45,0.27 -2.02,0.48 -2.58,0.61 -2.4,0.56 -5.76,1.15 -7.34,2.47 -0.91,0.75 -2.15,2.44 -2.63,3.88 -0.62,1.86 0.69,2.66 2.16,4.12 1.53,1.52 1.8,1.66 4.22,2.29 1.42,0.37 2.1,0.35 4,0.9 1.56,0.45 1.16,0.01 3.79,1.14 1.41,0.6 3.37,0.99 4.72,1.79 0.8,0.48 1.07,0.83 2.03,1.27 0.26,0.16 1.71,0.78 2.28,0.71 0.89,-0.11 0.39,0.32 1.25,0.13 0.35,-0.08 0.78,-0.42 0.97,-0.69 -0.33,-0.22 -0.69,-0.8 -1.95,-1.41l-4.41 -2.31c-0.43,-0.24 -0.89,-0.26 -1.37,-0.4 -0.76,-0.23 -0.96,-0.54 -2.53,-0.85 -0.78,-0.15 -0.84,-0.4 -1.85,-0.68l-2.07 -0.59c-0.3,-0.07 -0.26,-0.09 -0.62,-0.18 -0.21,-0.05 -0.45,-0.1 -0.65,-0.16 -0.16,-0.05 0.03,-0.01 -0.31,-0.1l-1.11 -0.23c-0.67,-0.07 -1.98,-0.5 -2.75,-0.64 -0.97,-0.18 -1.68,-0.65 -2.21,-1.2 -1.56,-1.62 -1.73,-2.8 -0.26,-4.59 1.13,-1.37 2.71,-1.9 4.42,-2.38 0.4,-0.11 1.03,-0.25 1.36,-0.4 0.51,-0.24 2.11,-0.44 2.74,-0.56 0.46,-0.09 1.07,-0.21 1.45,-0.27 0.63,-0.1 0.95,-0.08 1.52,-0.25 0.46,-0.14 1.11,-0.13 1.63,-0.18 1.04,-0.09 1.12,-0.28 2.51,-0.42 2.04,-0.21 3.12,-0.45 5.29,-0.65 4.03,-0.38 2.33,0.19 2.38,-1.65 0.25,0.09 0.32,-0.02 0.61,0.57 0.71,1.45 0.41,-0.1 1.16,2.08 0.18,0.53 0.19,0.23 0.34,0.68 0.14,0.44 -0.04,0.65 0.53,0.69 0.7,0.05 0.84,-0.94 0.86,-1.49 0.02,-0.81 -0.69,-2.52 -0.99,-3.33 -0.61,-1.65 -0.2,-4.27 -0.19,-6.16 0.01,-0.98 -1.38,-12.84 -1.51,-13.81 -0.29,-2.18 -0.72,-5.36 -1.51,-7.1 -0.6,-1.3 -1.54,-2.97 -2.41,-4.13 -1.55,-2.07 -4.27,-3.95 -3.21,-7.27 0.67,-2.11 2.33,-1.96 4.58,-1.53 0.87,0.17 1.05,0.4 1.63,0.67 0.02,-0.02 0.04,-0.09 0.05,-0.07l0.36 -0.52c0.35,0.17 0.11,0.15 0.51,0.33 0.28,0.13 0.43,0.08 0.68,0.2 0.22,0.7 -0.39,0.58 -0.65,1.12 0.19,0.49 -0.05,0.08 0.64,0.61 0.44,0.34 -0,0.56 0.54,0.85 1.31,0.67 1.7,0.59 2.99,0.98 1.54,0.47 3.41,-0.19 5.06,-0.1l1.34 -0.06c0.64,0.02 2.82,-0.6 3.49,-0.84 0.93,-0.32 2.47,-0.65 3.55,-0.78l1.18 -0.18c4.81,-0.62 3.68,-0.04 8.03,0.64 1.69,0.37 4.37,0.65 6.09,0.71l5.91 0.01c0.31,0.07 0.27,0.18 0.42,0.4 0.97,0.03 1.29,0.09 2.01,-0.35l0.99 -0.54c0.53,-0.27 0.83,-0.72 1.5,-0.84 0.23,-0.13 0.63,-0.41 0.93,-0.59 0.44,-0.25 0.58,-0.25 1.13,-0.43 0.58,-0.18 0.34,-0.3 1.18,-0.34 0.51,-0.03 1.03,-0.06 1.53,0.02 -0.02,1.16 -2.83,5.55 -3.33,6.15 -0.72,0.86 -1.64,2.12 -2.13,3.08 -0.21,0.42 -0.55,0.93 -0.74,1.29 -1.07,1.96 -0.98,5.43 -1.43,6.95 -0.23,0.77 -0.23,2.88 -0.3,3.85 -0.12,1.68 -0.01,3.19 -0.06,3.94 -0.04,0.95 0.4,3.11 0.65,4.19 0.06,0.27 0.05,0.41 0.16,0.68 0.11,0.29 0.2,0.27 0.22,0.64 0.39,0.41 1.25,3.37 3.21,5.23 0.39,0.37 0.8,1.09 1.31,1.54 0.46,0.42 0.98,0.79 1.52,1.23 0.47,0.38 3.18,1.44 3.98,1.65 0.77,0.2 1.51,0.32 2.41,0.43 2.43,0.29 5.62,-0.04 7.84,0.51 0.66,0.16 1.83,0.07 2.66,0.23 0.88,0.17 1.6,0.2 2.42,0.3 0.45,0.06 0.77,0.18 1.19,0.26l3.77 0.46c0.73,-0.01 1.53,-0.35 2.45,-0.4 0.11,-0.15 2.26,-1.36 2.47,-1.47 3.21,-1.65 5.17,-2.47 8.92,-0.64 0.38,0.19 0.79,0.54 1.05,0.9 0.47,0.66 0.57,4.75 0.7,5.1 0.23,0.59 0.15,0.76 -0.13,1.39l-1.4 3.49c-0.14,0.42 -0.25,0.32 -0.39,0.53 -0.26,0.41 0.08,0.34 -0.29,0.73 -0.25,0.27 -0.11,-0.01 -0.49,0.43l-0.31 0.3c-0.02,0.01 -0.04,0.03 -0.06,0.04 -0.02,0.01 -0.04,0.03 -0.06,0.04 -0.23,0.21 -0.26,0.4 -1.11,1.03 -0.28,0.21 -0.31,0.18 -0.75,0.19l-5.48 -0.37c-1.29,-0.26 -0.56,-0.43 -1.45,-0.49 -2.36,-0.15 -6.65,0.5 -8.76,1 -0.44,0.11 -1.18,0.18 -1.59,0.32l-4.72 1.14c-0.63,0.15 -3.56,1.39 -3.95,1.79 -0.63,0.66 0.01,0.7 -1.27,1.08 -0.59,0.18 -0.6,0.28 -0.5,0.46 0.37,-0.03 0.64,-0.17 0.91,-0.27l2.98 -0.98c1.24,-0.38 2.88,-0.87 4.23,-1.06 2.42,-0.34 2,-0.95 3.9,0.49 0.53,0.41 1.51,0.34 2.19,0.15 1.04,-0.28 0.16,-0.31 2.11,-0.53 0.4,-0.04 0.8,-0.01 1.19,-0.05l2.29 -0.37c0.53,-0.11 0.83,-0.01 1.29,-0.05 0.72,-0.06 0.1,-0.61 0.82,-0.3 0.3,0.13 0.01,0.32 1.11,0.21 0.9,-0.08 4.24,0.34 5.03,-0.25 0.45,-0.34 0.28,-0.25 0.83,-0.5l0.58 -0.33c0.09,-0.06 0.23,-0.16 0.23,-0.16 0.68,-0.47 1,-0.53 1.58,-1.08 0.17,-0.16 0.55,-0.55 0.69,-0.64 0.02,-0.01 0.05,-0.02 0.07,-0.04l0.15 -0.06c0.17,-0.06 0.02,0.03 0.23,-0.07 0.25,-0.13 0.22,-0.15 0.3,-0.41 -0.31,-0.53 0.32,0.38 -0.15,-0.16 -0.49,-0.56 0.27,-0.69 1.05,-2.19 0.39,-0.75 0.71,-1.6 0.86,-2.37 0.07,-0.36 0.17,-1.21 0.18,-1.49 0.01,-0.42 -0.09,-1.24 0.02,-1.6 0.06,-0.2 0.42,-0.92 0.61,-0.98 0.41,-0.12 0.82,0.13 0.88,-0.59 -0.23,-0.21 -0.13,-0.15 -0.49,-0.22 -0.3,-0.06 -1.11,-0.04 -1.11,-0.61 0,-0.51 -0.04,-0.05 0.12,-0.22 0.08,-0.08 0.46,0.07 0.23,-0.42 -0.15,-0.32 -0.15,-0.02 -0.43,-0.31 -0.36,-0.38 -0.18,-2.25 -3.54,-3.71 -4.11,-1.78 -5.33,-1.1 -9.04,0.52 -0.68,0.3 -2.31,1.26 -2.9,1.37 -0.87,0.16 -0.44,0.29 -1.09,0.36 -2.97,0.32 -2.84,-0.32 -3.57,-0.73 -0.35,-0.2 -0.7,-0.4 -1.11,-0.38 -3.34,0.11 -7.44,-0.1 -11.1,-0.17 -0.25,-0.26 -0.47,-0.63 -0.69,-0.93 -0.24,-0.33 -1.82,-1.13 -2.2,-1.14 -1.64,-0.05 -0.8,-0.03 -1.43,-0.3 -0.17,0.17 -0.14,0.18 -0.25,0.41 -0.23,-0.02 -2.02,-0.21 -2.17,-0.25 -0.45,-0.12 0.07,-0.1 -0.35,-0.12 -0.45,-0.02 -0.54,0.49 -1.37,-0.12 -0.56,-0.41 -2.17,-1.8 -2.36,-2.4 0.16,-0.54 0.14,-0.2 0.27,-0.49 0.03,-0.08 0.04,-0.12 0.07,-0.22 0.01,-0.02 0.02,-0.05 0.02,-0.08 0.19,-0.57 0.41,-0.82 0.18,-1.22 -0.2,-0.34 -0.38,-0.53 -0.56,-0.89 -0.25,-0.5 -0.1,-0.65 -0.39,-1.12l-1.87 0c-0.62,-0.81 -1.27,-5.84 -1.44,-7.29 -0.17,-1.43 -0.51,-2.23 -0.29,-3.81 0.22,-1.57 0.7,-6.01 1.75,-6.89 1.29,-1.09 0.44,-0.8 1.54,-2.87 1.18,-2.22 7.83,-8.83 4.23,-11.1 -0.41,-0.26 -0.97,-0.48 -1.51,-0.63 -0.86,-0.24 -1.01,-0.03 -1.78,0.24 -0.97,0.34 -2.23,0.77 -3.13,1.24 -0.96,0.51 -1.5,1.14 -2.76,1.53 -0.73,0.22 -1.42,0.01 -1.98,0.16 -0.43,0.11 -0.26,0.31 -0.91,0.18 -0.28,-0.06 -0.57,-0.22 -0.95,-0.23l-1.86 0.13c-0.57,0.1 -0.45,-0.09 -0.91,-0.15l-2.13 -0.02c-0.57,-0.06 -0.47,-0.18 -0.85,-0.3 -0.39,-0.12 -1.43,-0.22 -1.9,-0.32 -1.16,-0.26 -6.63,-1.31 -7.49,-1.1 -1.11,0.28 -2.76,0.11 -4.02,0.28 -2.51,0.34 -5.7,1.46 -7.9,1.79 -1.02,0.15 -0.43,0.56 -3,0.32 -1.67,-0.16 -1.21,0.19 -3.41,-0.76l-2.23 -1.04c-1.09,-0.62 -2.35,-1.48 -3.52,-1.89 -0.88,-0.31 -2.83,-0.7 -3.71,-0.48 -1.91,0.49 -3.14,3.42 -3.01,5.83 0.12,2.01 2.27,4.41 3.13,5.59 0.63,0.86 2.2,3.06 2.46,4.05 0.11,0.39 0.07,0.61 0.18,0.96 0.08,0.28 0.19,0.66 0.25,0.96z"/>
   <path class="fil4" d="M67.13 110.98c0.61,0.45 0.24,0.38 1.09,0.65 0.45,1.62 3.2,3.12 3.36,4.65 -0.29,0.25 -0.29,0.17 -0.61,0.31 -0.01,0.75 0.73,0.28 -0.52,1.28l-0.43 0.48c-0.11,0.16 -0.04,0.03 -0.17,0.24 -0.34,0.57 -0.49,1.06 -0.06,1.56l0.19 0.22c0.34,0.44 0.8,0.92 1.27,1.27 1.06,0.79 1.57,0.16 1.97,0.65l-0.89 0.26c-0.44,0.88 -0.42,1.05 -1.36,1.78l-0.03 0.92 0.37 0.43c0.01,0.02 0.03,0.05 0.05,0.07 0.01,0.02 0.04,0.06 0.05,0.07 0.01,0.02 0.03,0.05 0.05,0.07 -0.49,0.21 -0.3,-0.05 -0.4,0.27 0.27,0.47 0.26,0.26 0.93,0.25 -0.09,1.03 -0.24,0.31 0.24,0.98 0.26,0.37 0.07,0.11 0.19,0.54 0.09,0.32 0.11,0.13 0.18,0.56 -0.27,0.5 -0.57,0.59 -0.79,0.99 -0.4,0.74 -0.01,0.87 0.15,1.36 -0.22,0.41 -0.52,0.29 -0.13,0.94 0.79,1.3 0.76,0.29 -0.26,2.04 -0.29,0.5 -0.21,0.11 -0.81,1.24 -0.28,0.54 -0.3,0.72 -0.02,1.29 0.11,0.22 0.73,0.58 1.12,0.89 -0.03,0.52 -0.2,0.69 0.27,1.05 0.45,0.35 0.65,0.31 1.18,0.46 0.01,0.79 -0.09,0.45 -0.32,0.96 0.4,0.63 0.6,-0.14 0.82,1.31 0.06,0.41 0.2,0.37 0.3,0.77 0.32,1.28 -0.21,1.06 -0.46,1.68 -0.75,1.89 -0.73,1.18 -0.16,2.23 0.08,0.15 -0.02,-0.15 0.11,0.22 -0.03,0.02 -0.07,0 -0.09,0.04l-0.64 0.19c0.21,0.59 1.33,1.07 1.35,1.41 -0.15,0.48 -0.33,0.33 -0.59,0.78 -0.22,0.37 -0.19,0.53 -0.64,0.7 -1.08,0.43 -0.74,0.24 -1.13,1.62l-0.84 0.19c0,0.52 0.18,0.47 0.15,1.7 -0.01,0.28 0,0.65 -0.02,0.92 -0.05,0.56 -0.07,0.33 -0.23,0.7 -0.27,0.6 0.03,0.97 -0.38,1.47 -0.48,0.59 -0.3,0.38 -0.4,1.4 -0.14,1.45 -0.61,0.08 0.86,2.37l1.7 2.12c0.04,1.29 -0.33,2.76 -0.36,4.18l-0.04 11.06c0.03,0.16 0.04,0.31 0.07,0.45l0.61 3.41c0.4,1.57 1.59,3.05 3.39,3.38 1.71,0.32 2.43,-0.15 3.62,-0.76 3.33,-1.71 4.9,-3.18 6.97,-6.6 0.35,-0.58 0.48,-0.92 0.84,-1.4 0.57,-0.75 0.72,-0.71 1.09,-1.16 0.36,-0.44 0.36,-1 0.63,-1.64l0.35 -0.77c0.14,-0.28 0.23,-0.52 0.37,-0.86 0.78,-2 3.15,-7.35 4.65,-8.78 1.34,-1.28 1.55,-1.78 2.18,-2.41 0.68,-0.69 1.98,-1.21 3.35,-0.76 1.29,0.42 1.76,1.05 2.4,2.06 1.04,1.64 1.67,2.33 2.64,4.09l2.47 4.37c1.06,2 1.34,2.28 2.81,3.91 1.22,1.36 2.1,2.51 3.8,3.06 1.27,0.42 4.4,0.88 5.56,-0.43 0.96,-1.08 1.97,-2.92 2.44,-4.32 0.9,-2.71 -0.52,-5.39 -1.28,-7.4 -0.58,-1.53 -3.03,-7.24 -3.25,-8.06 -0.24,-0.92 -0.46,-0.9 -0.91,-1.47l-0.39 -0.29c-0.28,0.34 -0.2,0.48 -0.65,0.74 -0.51,0.48 -0.16,1.03 0.04,1.73 0.16,0.54 0.23,1.3 0.45,1.79 0.44,0.99 1.74,3.74 2.02,4.71 0.63,2.22 3.36,6.08 1.86,8.41 -0.37,0.57 -1.48,2.37 -1.84,2.65 -0.94,0.73 -2.7,0.33 -3.63,-0.14 -1.05,-0.54 -1.57,-1.38 -2.31,-2.17 -1.73,-1.83 -2.31,-3.27 -3.56,-5.52 -1.14,-2.05 -2.02,-3.86 -3.37,-5.6 -1.52,-1.94 -1.96,-3.41 -4.62,-4.35 -1.27,-0.45 -2.53,-0.35 -3.81,0.06 -1.38,0.44 -2.21,1.5 -3.08,2.62 -1.05,1.37 -0.62,0.44 -1.15,1.09l-2.99 4.87c-0.27,0.44 -1.12,2.87 -1.35,3.34l-0.14 0.27c-0.52,1.01 -0.09,0.8 -1.01,2.66 -0.04,0.08 -0.51,1.12 -0.85,1.6 -0.7,0.96 -0.21,-0.03 -0.91,1.36 -0.11,0.22 -0.27,0.35 -0.42,0.71 -0.18,0.41 -0.12,0.34 -0.44,0.64 -0.18,0.17 -0.34,0.42 -0.5,0.64 -1.03,1.47 -0.22,0.04 -1,1.24 -0.07,0.11 -0.06,0.09 -0.13,0.16l-1.76 1.81c-0.02,0.02 -0.04,0.04 -0.05,0.05 -0.6,0.6 -0.2,0.29 -0.97,0.62 -0.42,0.18 -0.18,0.12 -0.62,0.42l-2.1 1.16c-0.34,0.17 -0.69,0.15 -1.01,-0.02 -0.15,-0.08 -0.62,-0.35 -0.7,-0.42 -1.26,-1.02 -1.65,-3.47 -1.66,-5 -0.01,-2.3 -0.26,-9.17 -0.09,-11.09 0.06,-0.66 0.21,-1.25 0.24,-1.96 0.05,-1.35 0.25,-2.71 0.46,-4.04 0.1,-0.64 0.6,-3.51 0.55,-3.87 -0.02,-0.52 0.11,-1.58 0.14,-2.2 0.3,-6.59 -0.08,-8.03 -0.45,-14.56 0.07,-1.12 -0.24,-3.02 -0.3,-4.3l-0.09 -3.37c-0.03,-1.05 -0.46,-0.58 -0.13,-1.14l0.17 -0.4c0.2,-1.23 0.31,-3.03 0.33,-4.28 0.01,-0.81 0.37,-0.73 0.34,-1.52 -0.11,-0.08 -0.06,-0.04 -0.21,-0.1l-0.24 -0.1c0.06,-0.63 0.55,-0.23 -0.02,-1.48 -0.65,-1.4 -0.53,-2.39 -0.73,-3.16 -0.07,-0.26 -0.17,-0.4 -0.2,-0.79 -0.04,-0.67 -0.29,-1.67 -0.57,-2.29l-1.93 -3.78c-0.36,-0.17 -0.47,-0.47 -1.11,-1.02 -0.28,-0.24 -0.9,-0.59 -1.31,-0.63 0.01,0.22 0.11,0.7 0.11,0.81 -0.03,-0.02 -0.11,-0.04 -0.14,-0.05 -0.02,-0.01 -0.05,-0.01 -0.08,-0.02 -0.03,-0.01 -0.06,-0.01 -0.09,-0.01 -0.13,-0.02 -0.24,-0 -0.35,-0.03 -0.57,-0.14 0.23,0.18 -0.24,-0.13 -0.02,-0.01 -0.04,-0.03 -0.06,-0.05 -0.73,-0.5 -0.73,-0.65 -1.28,-0.44 -0.12,0.32 -0.06,0.23 -0.01,0.4z"/>
   <path class="fil5" d="M116.88 145.9c-0.5,-0.43 -0.79,-0.37 -1.39,-0.6 -0.57,-0.22 -0.49,-0.74 -0.6,-1.35 -0.08,-0.47 -1,-2.14 -1.27,-2.69 -1.7,-3.4 -2.37,-9.39 -2.56,-13.34 -0.06,-1.3 -0.64,-3.54 1.25,-4.47 0.41,-0.2 1.21,-0.37 1.5,-0.53 -0.74,-1.06 0.02,-1.18 0.21,-1.43 -0.14,-0.54 -0.6,-0.69 -0.88,-1.05 -0.08,-0.15 0.01,-0.53 -0.17,-0.85 -0.24,-0.41 -0.3,-0.1 -0.4,-0.64 -0.12,-0.61 -0.28,-1.98 0.36,-2.13l0.44 -0.08c0.37,-0.12 1,-0.92 1.31,-1.22 1.24,-1.22 0.03,-0.87 -0.08,-2.18 0.14,-0.77 4.61,-3.8 5.85,-4.38 0.38,-0.18 0.81,-0.36 1.21,-0.53 0.77,-0.32 0.24,-0.47 0.98,-0.71l0.18 -0.17c0.33,-0.32 0.25,-0.19 0.17,-0.74 -0.06,-0.45 -0.04,-0.91 -0.16,-1.28 -0.09,-0.27 -0.02,-0.05 -0.13,-0.26 -0.34,-0.63 -0.25,-1.44 -0.26,-2.12l-1.1 -0.8c-0.19,-0.17 -0.29,-0.36 -0.4,-0.64 -0.41,-1.11 0.34,-0.78 -1.37,-1.45 -0.6,-0.23 -0.92,-0.24 -1.53,-0.41 -1.37,-0.39 -0.96,-0.7 -1.77,-1.1 -0.98,-0.48 -2.92,0.15 -3.4,0.23 -1.11,0.19 -0.64,-0.24 -1.15,0.24 -0.02,0.01 -0.04,0.04 -0.05,0.05 -0.65,0.62 -0.58,0.26 -1.16,0.59 -0.26,0.14 -0.42,0.27 -0.73,0.4 -0.32,0.13 -2.19,0.62 -2.47,1.27 -0.37,0.84 0.26,1.27 0.52,2.42 0.1,0.45 0.54,1.27 0.64,1.59 0.12,0.37 0.05,0.48 0.23,0.89 0.22,0.51 0.54,0.67 0.65,1.61 0.32,2.82 -0.57,2.06 -0.48,2.93l1.19 2.15c0.88,1.92 0.43,1.75 -0.19,3.44 -0.86,2.36 -1.41,4.9 -1.38,7.69 0.02,1.52 0.3,2.81 0.34,4.18 0.04,1.54 0.36,2.85 0.56,4.05 0.07,0.42 0.06,0.66 0.18,1.07 0.47,1.66 0.18,2.03 0.63,2.77 0.09,0.15 0.19,0.63 0.23,0.84 0.22,1.35 0.56,2.07 0.83,3.15l1.16 2.93c0.01,0.03 0.02,0.05 0.03,0.08l0.22 0.69c0.14,0.42 0.13,0.32 0.27,0.84l0.29 0.84c0.05,0.15 0.12,0.33 0.18,0.45l1.41 3.66c0.16,0.64 0.8,2.9 1.55,3.05 0.64,0.13 1.01,-0.71 1.17,-0.94 0.74,-1.08 0.09,-0.91 0.22,-1.84 0.11,-0.76 0.95,-0.09 0.53,-1.89 -0.13,-0.57 -0.56,-1.12 -0.86,-1.62 -0.16,-0.27 -0.29,-0.48 -0.56,-0.65z"/>
   <path class="fil6" d="M54.42 89.46c0.38,0.06 2.67,-0.31 3.23,-0.4 4.53,-0.78 5.93,-0.43 10.36,-0.65 0.11,-0.51 0.22,-0.91 0.25,-1.49 0.03,-0.59 -0.01,-1.24 -0,-1.84 0.02,-1.35 0.41,-5.87 -0.11,-6.83 -0.82,-1.54 -0.24,-1.89 -0.74,-3.63 -0.06,-0.23 -0.1,-0.54 -0.12,-0.77l-0.61 -4.8c-0.24,-2.26 0.16,-4.26 -0.72,-6.46 -0.5,-0.29 -0.14,-0.32 -0.52,-0.59l-0.35 -0.12c-0.03,-0.01 -0.17,-0.08 -0.26,-0.1 -0.07,0.91 -0.17,0.61 -0.51,0.87 0,1.18 0.15,1.85 -0.22,2.48 -0.37,0.63 0.08,0.75 -0.46,1.27 -0.27,0.26 -0.35,0.28 -0.84,0.29 0,0.79 -0.01,0.82 -0.81,0.82 0,0.78 -0.02,0.82 -0.81,0.82 -0,0.58 0.07,0.69 -0.41,0.81l0 0.82c-0.79,0.03 -0.22,-0.01 -0.46,0.57 -0.13,0.32 -0.36,0.25 -0.75,0.25 0,0.29 0.03,1 -0.01,1.24 -0.08,0.44 -0.31,0.39 -0.81,0.39 0,0.8 -0.02,0.82 -0.82,0.82 0,0.56 0.06,0.44 -0.23,0.8 -0.01,0.02 -0.03,0.04 -0.05,0.06l-0.13 0.18c-0.01,0.02 -0.03,0.04 -0.04,0.06 -0.01,0.02 -0.03,0.04 -0.05,0.05l-0.26 0.25c-0.25,0.26 0.23,0.22 -0.48,0.24 0,0.39 -0.01,0.53 -0.06,0.89 -0.09,0.65 0.11,0.6 -0.36,0.63 -0,2.95 0.14,2.54 -0.41,2.55 0,0.8 0.21,1.47 -0.41,1.63 0,1.95 0.27,2.44 -0.4,2.46l0 1.63 -0.41 0 0 1.63 -0.81 0.01 -0.01 3.2 0.58 -0.02z"/>
   <path class="fil3" d="M113.03 49.4c-0.11,0.33 -0.22,0.42 -0.6,0.74 -0.69,0.56 -2.02,1.01 -2.89,1.39 -0.58,0.26 -0.52,0.03 -0.78,0.44l-0.17 0.42c-0.29,1.43 -0.18,0.64 -0.51,1.84l-0.58 1.87c-0.67,1.86 -0.43,1.62 -1.69,2.4 -0.91,0.56 -0.45,0.19 -1.04,0.99 -0.17,0.23 -0.4,0.38 -0.59,0.53 -0.52,0.42 -1.17,0.52 -1.87,0.17 -1.37,-0.68 -1.03,-0.76 -1.92,-1.73l-3.55 -4.91c-1.61,-2.49 -0.34,-1.79 -0.22,-3.34l-0.49 -0.19c-4.35,-0.69 -3.22,-1.26 -8.03,-0.64l-1.18 0.18c1.22,-0.08 1.32,0.12 1.41,2.3 0.33,0.14 1.02,0.33 1.24,0.51 -0.02,0.64 -0.34,0.4 -0.27,0.91 0.05,0.42 0.38,0.23 0.87,0.34 0.05,0.64 -0.09,1.49 0.12,2.02 0.17,0.44 0.2,0.3 0.21,0.91 0.02,1.22 -0.16,1.02 1.14,1.61 0.8,0.36 0.92,0.28 1,0.71 3.06,-1.11 5.35,1.13 6.06,3.56 0.1,0.34 0.1,1.17 -0.02,1.52 -0.09,0.28 -0.17,0.23 -0.28,0.51 -0.08,0.21 -0.2,0.6 -0.25,0.77 0.8,-0.39 2.99,-0.31 3.27,0.79 0.14,0.54 0.08,0.37 0.51,0.64 1.08,0.68 1.02,0.13 1.79,0.27 0.34,0.06 0.4,0.29 0.84,0.39 0.57,-0.14 0.15,-0.27 0.72,-0.31 0.43,-0.03 0.53,0.16 0.91,0.22 0.35,0.05 0.69,-0.04 1.02,-0.02 0.78,0.05 0.36,0.73 1.69,-0.18 0.4,-0.27 0.32,-0.32 0.94,-0.34 0.13,1.29 -0.66,5.96 -0.02,6.67 0.05,-0.75 -0.06,-2.26 0.06,-3.94 0.07,-0.97 0.08,-3.08 0.3,-3.85 0.45,-1.52 0.35,-4.99 1.43,-6.95 0.2,-0.36 0.53,-0.87 0.74,-1.29 0.49,-0.96 1.41,-2.22 2.13,-3.08 0.5,-0.6 3.31,-5 3.33,-6.15 -0.51,-0.07 -1.02,-0.04 -1.53,-0.02 -0.84,0.05 -0.6,0.16 -1.18,0.34 -0.55,0.17 -0.69,0.17 -1.13,0.43 -0.31,0.18 -0.7,0.46 -0.93,0.59z"/>
   <path class="fil7" d="M62.78 107.93c0.34,0.24 0.8,0.33 1.25,0.55 0.59,0.29 0.65,0.35 1.12,0.71 0.67,0.53 1.32,1.05 1.98,1.79 -0.05,-0.17 -0.11,-0.08 0.01,-0.4 0.55,-0.21 0.55,-0.06 1.28,0.44 0.02,0.01 0.04,0.03 0.06,0.05 0.47,0.31 -0.33,-0.01 0.24,0.13 0.11,0.03 0.22,0.01 0.35,0.03 0.03,0 0.06,0.01 0.09,0.01 0.03,0 0.06,0.01 0.08,0.02 0.03,0.01 0.11,0.03 0.14,0.05 0,-0.12 -0.09,-0.6 -0.11,-0.81 0.41,0.04 1.03,0.39 1.31,0.63 0.64,0.55 0.76,0.85 1.11,1.02 -0.62,-1.09 -0.2,-1.79 -0.06,-2.81 0.28,-2.03 1.73,-1.67 1.36,-3.49 -0.34,-1.68 -0.93,-1.51 -1.24,-2.02 -0.22,-0.36 -0.34,-0.83 -0.51,-1.12 -0.68,-0.07 -1.49,0.03 -2.02,-0.21l-0.36 -0.25c-0.02,-0.01 -0.04,-0.03 -0.06,-0.04l-0.25 -0.17c-0.02,-0.02 -0.13,-0.13 -0.15,-0.15 0.01,-0.27 0.04,0.09 -0.14,0.04 -0.38,-0.82 0.01,-1.23 -0.61,-1.74 -0.5,-0.41 -1.29,-0.25 -2.05,-0.29 -1.3,-0.06 -3.28,-0.06 -4.54,-0.23 -1.52,-0.21 -2.98,0.15 -4.5,-0.31 -4.96,-1.5 -2.7,-1.8 -3.18,-3.17l-0.34 -0.67c-0.14,-0.36 -0.18,-0.36 -0.38,-0.63 -0.36,-0.49 -0.46,-0.73 -0.74,-1.31 -0.34,-0.71 -0.58,-0.34 -0.64,-1.44l0.85 -0.24c1.18,-0.17 5.68,-0.88 6.17,-1.18 -0.52,0.05 -1.17,0.04 -1.63,0.18 -0.57,0.17 -0.89,0.15 -1.52,0.25 -0.38,0.06 -0.99,0.19 -1.45,0.27 -0.63,0.12 -2.23,0.32 -2.74,0.56 -0.33,0.15 -0.96,0.29 -1.36,0.4 -1.71,0.48 -3.29,1.01 -4.42,2.38 -1.47,1.78 -1.3,2.97 0.26,4.59 0.53,0.55 1.24,1.02 2.21,1.2 0.77,0.14 2.08,0.57 2.75,0.64l1.11 0.23c0.34,0.09 0.15,0.05 0.31,0.1 0.2,0.06 0.44,0.11 0.65,0.16 0.37,0.09 0.32,0.11 0.62,0.18l2.07 0.59c1.01,0.28 1.07,0.53 1.85,0.68 1.57,0.31 1.77,0.62 2.53,0.85 0.48,0.14 0.94,0.16 1.37,0.4l4.41 2.31c1.27,0.6 1.62,1.19 1.95,1.41 -0.19,0.27 -0.62,0.62 -0.97,0.69 -0.86,0.18 -0.36,-0.24 -1.25,-0.13 -0.57,0.07 -2.02,-0.55 -2.28,-0.71z"/>
   <path class="fil7" d="M143.6 90.26c0.43,-0.17 0.28,-0.16 0.75,-0.12 0.43,1.1 -0.21,0.62 3.02,1.43 0.81,0.2 0.82,0.43 1.12,1.17 0.86,2.15 -0.5,3.18 -0.95,4.03 -0.5,0.94 -0.91,0.81 -2.17,1.61l-1.43 0.88c-0.02,1.15 0.41,0.21 0.38,1.64 -0.59,0.29 -3.35,0.31 -4.64,0.59 -0.63,0.13 -1.56,0.11 -1.96,0.17 -0.58,0.09 0.4,0.36 -0.65,0.11 -0.04,0.4 -0.78,0.27 -1.89,0.62 -0.18,0.06 -0.12,0.04 -0.22,0.07 -0.02,0.01 -0.05,0.02 -0.07,0.03 -0.03,0.01 -0.05,0.02 -0.08,0.03 -0.03,0.01 -0.05,0.02 -0.08,0.03 -0.32,0.09 -1.41,0.34 -1.73,0.15 -0.3,0.52 -0.6,0.42 -1.24,0.56 -0.68,0.15 -0.79,0.24 -1.62,0.26l-0.31 0.39c-0.02,0.01 -0.05,0.04 -0.07,0.06l4.72 -1.14c0.41,-0.14 1.15,-0.21 1.59,-0.32 2.1,-0.5 6.39,-1.15 8.76,-1 0.89,0.06 0.15,0.23 1.45,0.49l5.48 0.37c0.44,-0.01 0.47,0.02 0.75,-0.19 0.85,-0.62 0.88,-0.82 1.11,-1.03 0.02,-0.01 0.04,-0.03 0.06,-0.04 0.02,-0.01 0.04,-0.03 0.06,-0.04l0.31 -0.3c0.37,-0.44 0.24,-0.16 0.49,-0.43 0.37,-0.4 0.04,-0.33 0.29,-0.73 0.13,-0.21 0.25,-0.12 0.39,-0.53l1.4 -3.49c0.27,-0.63 0.36,-0.81 0.13,-1.39 -0.14,-0.34 -0.23,-4.44 -0.7,-5.1 -0.26,-0.36 -0.66,-0.72 -1.05,-0.9 -3.76,-1.83 -5.71,-1.02 -8.92,0.64 -0.21,0.11 -2.37,1.32 -2.47,1.47z"/>
   <path class="fil7" d="M96.12 50.02l0.49 0.19c-0.12,1.56 -1.38,0.86 0.22,3.34l3.55 4.91c0.89,0.97 0.55,1.06 1.92,1.73 0.7,0.34 1.34,0.24 1.87,-0.17 0.19,-0.15 0.42,-0.31 0.59,-0.53 0.58,-0.8 0.13,-0.43 1.04,-0.99 1.27,-0.78 1.02,-0.55 1.69,-2.4l0.58 -1.87c0.33,-1.2 0.22,-0.41 0.51,-1.84l0.17 -0.42c0.26,-0.4 0.2,-0.18 0.78,-0.44 0.87,-0.38 2.2,-0.83 2.89,-1.39 0.38,-0.31 0.49,-0.4 0.6,-0.74 -0.67,0.12 -0.96,0.57 -1.5,0.84l-0.99 0.54c-0.71,0.44 -1.04,0.38 -2.01,0.35 -0.15,-0.22 -0.11,-0.33 -0.42,-0.4l-5.91 -0.01c-1.72,-0.06 -4.39,-0.34 -6.09,-0.71z"/>
   <path class="fil3" d="M85.28 89.38c0.7,0.22 1.21,-0.03 2.47,0.48 0.12,1.69 1.19,0.96 1.6,0.96 -0.02,0.05 -0.11,0.22 -0.11,0.25l0.01 0.21c0,0.02 0.01,0.05 0.02,0.08 0.53,-0.18 -0,0.05 0.35,-0.32 0.02,-0.02 0.03,-0.04 0.05,-0.06 0.02,-0.01 0.04,-0.04 0.05,-0.05 0.24,-0.19 0.9,-0.21 1.84,-0.91l0.12 -1.97c1.14,-0.06 1.79,-0.1 2.81,-1.21 1.89,-2.06 1.45,-0.97 2.36,-1.71l0.06 -1.41c-0.3,-0.19 -0.22,0.01 -0.77,-0.4 -0.56,-0.43 -1.22,-0.1 -2.09,-0.18 -0.53,-0.05 -0.74,-0.42 -1.11,-0.71 -0.53,-0.42 -0.47,-0.35 -0.72,-1.07 -0.78,-0.12 -1.36,0.09 -2.07,-0.22 -0.93,-0.4 -0.96,-0.02 -1.85,0.13l-3.62 0.96c-0.44,0.27 -0.22,1.29 -0.32,1.91 -0.75,4.8 0.28,3.38 0.84,4.3 0.24,0.41 -0.11,0.55 0.08,0.94z"/>
   <path class="fil7" d="M75.58 155.6l0.3 -0.91c1.07,-0.16 2.81,-0.82 2.87,-2.1 0.04,-0.84 0.19,-0.7 0.88,-0.85l-0.02 -0.21c-0.03,-0.14 -0.02,-0.01 -0.06,-0.22 -0.16,-0.83 0.63,-1.08 0.82,-1.18 -0.01,-0.5 -0.24,-0.52 -0.02,-1.05 0.32,-0.48 0.65,0.08 1.59,-0.78 0.02,-0.51 -0.12,-0.65 0.11,-0.99 0.28,-0.29 -0.32,-0.14 0.29,-0.23 -0.09,-0.03 0.02,0.44 -0.07,-0.14 0,-0 -0.09,-0.18 0.08,-0.47 -0.24,-0.5 -0.33,0.3 -0.31,-1.43 0,-0.45 -0.03,-0.5 0.1,-0.86 0.07,-0.18 0.16,-0.35 0.18,-0.65 -0.6,-0.3 -0.71,-0.64 -1.25,-1.61 -0.22,-0.4 0.01,-0.13 -0.32,-0.39 -0.75,-0.58 -0.64,-0.81 -1.45,-1.31l-0.41 -0.3c-0.87,-0.56 -0.9,-0.76 -1.35,-0.8l-2.08 0.07 -0.19 -0.35c0.38,6.53 0.75,7.96 0.45,14.56 -0.03,0.62 -0.16,1.67 -0.14,2.2z"/>
   <path class="fil8" d="M92.62 58.84c-1.43,1.03 -0.86,0.88 -1.92,2 -0.45,0.48 -1.26,1.81 -1.41,2.67 -0.49,2.75 0.74,1.99 1.55,2.45l1.3 0.73c0.43,0.25 0.31,0.16 0.78,0.22 0.83,0.12 0.03,0.11 0.71,0.35 0.32,-0.21 0.23,-0.38 0.61,-0.36 0.52,0.03 0.18,0.25 0.56,0.37 0.31,0.1 0.3,-0.18 0.52,-0.29 0.36,-0.19 0.36,-0.01 0.78,-0.15 1.05,-0.33 1.54,-1.41 2.02,-1.64 0.05,-0.17 0.17,-0.57 0.25,-0.77 0.11,-0.28 0.19,-0.23 0.28,-0.51 0.12,-0.35 0.12,-1.18 0.02,-1.52 -0.72,-2.43 -3,-4.67 -6.06,-3.56z"/>
   <path class="fil9" d="M78.17 67.23c0.81,-0.55 2.8,-1.08 2.89,-2.13 0.13,-1.6 0.06,-2.95 -1.38,-3.77 -0.79,-0.45 -1.33,-0.85 -2.35,-1.11 -0.88,-0.13 -1.24,-0.3 -2.09,0.04 -0.54,0.22 -1.26,0.46 -1.66,0.78 -1.16,0.92 -1.74,1.81 -1.6,3.35 0.07,0.78 1.66,2.24 2.35,2.59 0.48,0.24 1.16,0.69 1.72,0.64 0.49,-0.04 0.68,-0.03 1.05,-0.2 0.49,-0.22 0.52,-0.09 1.08,-0.2z"/>
   <path class="fil7" d="M78.54 51.23c-1.65,-0.09 -3.52,0.57 -5.06,0.1 -1.29,-0.39 -1.69,-0.31 -2.99,-0.98 -0.55,-0.28 -0.1,-0.5 -0.54,-0.85 0.36,0.77 -0.39,1.04 -0.83,1.56 -1.49,1.73 -0.66,2.13 -0.93,4.2 -0.07,0.52 -0.17,1.94 0.15,2.3 0.02,0.02 0.07,0 0.08,0.04l0.31 0.13c0.24,0.11 0.12,0.04 0.35,0.24 0.34,0.31 0.33,0.26 0.58,0.64 0.89,0 0.69,-0.04 1.02,0.21 0.52,0.39 -0.42,-0.11 0.13,0.1l3.76 -3.92c1.18,-1.53 -0.55,-3.08 2.23,-3.45 0.26,-0.03 0.59,-0.07 0.8,-0.09 0.38,-0.04 0.65,-0.04 0.96,-0.22z"/>
   <path class="fil8" d="M82.97 71.53c0.03,0.53 0.02,0.67 0.14,1.12 0.07,0.28 0.12,0.71 0.07,1.12 -0.74,0.53 -1.34,0.2 -2.04,1.12 -0,0.01 0.12,2.06 2.37,0.97 0.32,-0.16 0.46,-0.44 0.76,-0.65 0.6,0.22 0.34,0.4 2.01,1.04 0.89,0.34 1.86,-0.29 1.94,-0.95 -0.14,-0.85 -1.68,-0.83 -2.1,-1.05 -0.15,-0.08 -0.04,-0.06 -0.34,-0.18 -0.33,-0.13 -0.17,0.1 -0.41,-0.16 -0.34,-0.25 -0.63,-1.63 -0.62,-2.18 0.85,-0.31 3.2,-0.62 2.57,-2.44 -1.12,-0.23 -0.89,0.76 -3.87,0.61 -0.95,-0.05 -1.75,-0.88 -2.2,-0.7 -0.37,0.15 -0.21,0.85 -0.03,1.09 0.39,0.52 1.2,0.8 1.76,1.24z"/>
   <path class="fil10" d="M76.05 61.36c-1.05,0.36 -1.56,1.81 -0.65,2.31 0.63,0.34 2.2,-0.62 2.22,-1.43 0.02,-0.86 -0.81,-1.14 -1.57,-0.88z"/>
   <path class="fil11" d="M93.56 60.07c-1.85,0.36 -2.08,2.71 -0.13,2.34 0,0 2.15,-1.14 1.11,-2.18 -0.26,-0.26 -0.58,-0.23 -0.98,-0.15z"/>
  </g>
 </g>
</svg>
